<svg width="53" height="56" viewBox="0 0 53 56" fill="none" xmlns="http://www.w3.org/2000/svg">
<path d="M51.7434 12.7897L51.7435 12.7897C51.7975 12.8158 51.8431 12.8566 51.875 12.9075C51.9069 12.9583 51.9238 13.0171 51.9238 13.0772V13.0774V42.8464V42.8467C51.9238 42.9067 51.9069 42.9655 51.875 43.0164C51.8431 43.0672 51.7975 43.108 51.7435 43.1341L51.7434 43.1341L26.3515 55.3921C26.3082 55.413 26.2608 55.4238 26.2128 55.4238C26.1648 55.4238 26.1175 55.413 26.0742 55.3922C26.0742 55.3922 26.0742 55.3921 26.0742 55.3921L0.688225 43.1342L0.688151 43.1341C0.634089 43.108 0.58849 43.0672 0.55659 43.0164C0.524687 42.9655 0.507782 42.9067 0.507813 42.8467V42.8464L0.507813 13.0774L0.507813 13.0772C0.507782 13.0171 0.524689 12.9583 0.556588 12.9075C0.588489 12.8566 0.63409 12.8158 0.688151 12.7897L0.688211 12.7897L26.0761 0.531713C26.0762 0.531703 26.0762 0.531693 26.0762 0.531683C26.1194 0.51083 26.1668 0.5 26.2148 0.5C26.2628 0.5 26.3102 0.510832 26.3534 0.53169C26.3534 0.531698 26.3535 0.531705 26.3535 0.531713L51.7434 12.7897ZM26.4312 1.27815L26.2138 1.1732L25.9964 1.27815L19.2024 4.55815L18.2698 5.00842L19.2024 5.45869L42.5467 16.7289C42.5472 16.7291 42.5476 16.7293 42.5481 16.7296C42.5665 16.7387 42.5839 16.7497 42.6001 16.7623L42.845 16.9525L43.1242 16.8177L49.9382 13.5277L50.8708 13.0774L49.9382 12.6271L26.4312 1.27815ZM17.7882 5.48415L17.5704 5.379L17.3528 5.48447L12.5528 7.81047L11.6225 8.26128L12.5534 8.7107L36.0174 20.0377L36.2348 20.1426L36.4522 20.0377L41.2602 17.7167L42.1929 17.2664L41.2602 16.8162L17.7882 5.48415ZM42.0928 18.8204V18.0238L41.3754 18.3701L36.8844 20.5381L36.6018 20.6746V20.9884V29.5684V30.365L37.3192 30.0187L41.8102 27.8507L42.0928 27.7143V27.4004V18.8204ZM26.5328 53.8004V54.597L27.2502 54.2507L50.9002 42.8324H51.2888V42.3324V14.3824V13.5858L50.5715 13.9321L43.0165 17.5791L42.7338 17.7156V18.0294V27.9134V27.9137C42.7338 27.9737 42.7169 28.0325 42.685 28.0834C42.6531 28.1342 42.6075 28.175 42.5535 28.2011L36.4205 31.1601L36.4205 31.1601C36.3718 31.1836 36.318 31.1943 36.2641 31.1913C36.2102 31.1883 36.1579 31.1717 36.1121 31.143C36.0664 31.1143 36.0287 31.0744 36.0026 31.0271C35.9765 30.9798 35.9628 30.9267 35.9628 30.8727V30.8724V21.0424V20.8695L35.8559 20.7335L35.8449 20.7195L35.7734 20.6285L35.6692 20.5781L11.0612 8.69815L10.8438 8.5932L10.6264 8.69815L2.48842 12.6272L1.55578 13.0774L2.48843 13.5277L20.2197 22.0879C20.2937 22.1255 20.3501 22.1905 20.3769 22.2691C20.404 22.3485 20.3987 22.4353 20.3623 22.5109C20.3258 22.5864 20.2611 22.6445 20.1821 22.6727C20.1039 22.7005 20.0179 22.6968 19.9425 22.6623L1.85818 13.9321L1.14081 13.5858V14.3824V42.3324V42.6463L1.42344 42.7827L25.1784 54.2507L25.8958 54.597V53.8004V25.8464V25.5326L25.6132 25.3961L23.4519 24.3529C23.3779 24.3153 23.3216 24.2503 23.2947 24.1717C23.2676 24.0924 23.2729 24.0055 23.3093 23.93C23.3458 23.8545 23.4105 23.7963 23.4895 23.7682C23.5677 23.7403 23.6535 23.744 23.7289 23.7784L25.9958 24.8764L26.2135 24.9818L26.4312 24.8767L32.1982 22.0926C32.1989 22.0922 32.1997 22.0918 32.2005 22.0915C32.276 22.057 32.3619 22.0533 32.4401 22.0812C32.5191 22.1093 32.5838 22.1675 32.6203 22.243C32.6567 22.3185 32.662 22.4054 32.6349 22.4847C32.6081 22.5633 32.5517 22.6283 32.4777 22.6659C32.477 22.6663 32.4762 22.6667 32.4755 22.6671L26.8155 25.3991L26.5328 25.5356V25.8494V53.8004Z" fill="black" stroke="black"/>
<path d="M7.90268 40.1785L4.18405 38.3821C4.11009 38.3444 4.0537 38.2794 4.02688 38.2009C3.99978 38.1215 4.00503 38.0347 4.04148 37.9591C4.07794 37.8836 4.14267 37.8255 4.22168 37.7973C4.29987 37.7695 4.3858 37.7732 4.46123 37.8076L8.17987 39.604C8.25379 39.6417 8.31019 39.7067 8.33703 39.7853C8.36413 39.8646 8.35888 39.9515 8.32242 40.027C8.28597 40.1025 8.22124 40.1607 8.14222 40.1888C8.06404 40.2167 7.97811 40.213 7.90268 40.1785Z" fill="black" stroke="black"/>
<path d="M11.614 37.3729L11.6138 37.3728L4.464 33.9209C4.46395 33.9209 4.4639 33.9208 4.46385 33.9208C4.38758 33.8841 4.29985 33.8791 4.21995 33.907C4.13998 33.9349 4.07438 33.9935 4.03758 34.0698C4.00078 34.1461 3.99579 34.2339 4.02371 34.3138C4.05163 34.3938 4.11016 34.4594 4.18648 34.4962L4.18663 34.4963L11.3365 37.9482L11.614 37.3729ZM11.614 37.3729C11.6903 37.4097 11.7488 37.4753 11.7768 37.5553C11.8047 37.6352 11.7997 37.723 11.7629 37.7993C11.7261 37.8756 11.6605 37.9341 11.5805 37.9621C11.5006 37.99 11.4128 37.985 11.3366 37.9483L11.614 37.3729Z" fill="black" stroke="black"/>
</svg>
