<svg width="68" height="70" viewBox="0 0 68 70" fill="none" xmlns="http://www.w3.org/2000/svg">
<path d="M27.8574 49.5786C27.1984 49.5786 26.5542 49.7798 26.0062 50.1567C25.4583 50.5336 25.0312 51.0693 24.779 51.696C24.5268 52.3228 24.4608 53.0124 24.5894 53.6778C24.718 54.3431 25.0353 54.9543 25.5013 55.434C25.9673 55.9137 26.561 56.2404 27.2073 56.3727C27.8537 56.5051 28.5236 56.4371 29.1325 56.1775C29.7413 55.9179 30.2617 55.4783 30.6278 54.9142C30.994 54.3502 31.1894 53.687 31.1894 53.0086C31.1882 52.0993 30.8368 51.2276 30.2121 50.5846C29.5875 49.9416 28.7407 49.5798 27.8574 49.5786Z" fill="#07173D"/>
<path d="M45.4961 49.5786C44.8371 49.5786 44.1928 49.7798 43.6449 50.1567C43.097 50.5336 42.6699 51.0693 42.4177 51.696C42.1655 52.3228 42.0995 53.0124 42.2281 53.6778C42.3567 54.3431 42.674 54.9543 43.14 55.434C43.606 55.9137 44.1997 56.2404 44.846 56.3727C45.4924 56.5051 46.1623 56.4371 46.7712 56.1775C47.38 55.9179 47.9004 55.4783 48.2665 54.9142C48.6326 54.3502 48.8281 53.687 48.8281 53.0086C48.8269 52.0993 48.4754 51.2276 47.8508 50.5846C47.2262 49.9416 46.3794 49.5798 45.4961 49.5786Z" fill="#07173D"/>
<path d="M57.3611 27.3606C57.0982 26.9686 56.5723 26.7726 55.7926 26.7726H30.9409C30.6798 26.8571 30.4535 27.0286 30.2976 27.2601C30.1416 27.4916 30.0649 27.7699 30.0795 28.0513C30.0807 28.3504 30.1673 28.6426 30.3285 28.8915C30.4897 29.1404 30.7184 29.3351 30.9862 29.4513H54.1742L52.4969 35.2939H30.0705C29.8398 35.3714 29.6402 35.5249 29.5026 35.7307C29.365 35.9364 29.2969 36.1831 29.3089 36.4326C29.3073 36.703 29.3818 36.968 29.5233 37.1958C29.6649 37.4235 29.8676 37.6042 30.1067 37.7159H51.7942L50.1939 43.2739H26.335L24.2633 26.1333C24.2179 25.7226 23.8099 22.1899 23.5787 20.7246C23.3747 19.3806 17.6129 16.5853 11.5201 13.6266C11.4308 13.5886 11.3355 13.5681 11.239 13.5659C11.083 13.5832 10.9347 13.6447 10.8107 13.7435C10.6866 13.8424 10.5916 13.9748 10.5363 14.1259C10.1646 14.9379 10.5091 16.2166 12.1457 17.0939L18.6963 20.2393C18.787 20.2906 20.5867 21.3499 20.759 22.9646C20.8542 24.0239 22.9123 39.6059 23.5334 44.3333L23.5606 44.5713C23.5606 44.9353 23.7465 46.7133 25.4601 46.7133H50.5475C52.039 46.7133 52.3609 45.1219 52.3609 45.0519L52.3835 44.9679L57.3702 29.7546C57.5062 29.3626 57.8235 28.0513 57.3611 27.3606Z" fill="#07173D"/>
</svg>
