<svg width="35" height="46" viewBox="0 0 35 46" fill="none" xmlns="http://www.w3.org/2000/svg">
<path d="M34.2085 8.78312L25.4453 0.276815C25.269 0.105532 25.0301 0.00898813 24.7807 0.00830078L0.943078 0.00830078C0.693477 0.00830078 0.454098 0.104571 0.277603 0.275932C0.101109 0.447294 0.00195313 0.67971 0.00195312 0.922052V45.0065C0.00195312 45.2489 0.101109 45.4813 0.277603 45.6527C0.454098 45.824 0.693477 45.9203 0.943078 45.9203H33.5418C33.7913 45.9198 34.0303 45.8233 34.2067 45.6521C34.3831 45.4808 34.4824 45.2487 34.483 45.0065V9.42635C34.4822 9.18521 34.3836 8.95408 34.2085 8.78312ZM25.7218 3.13229L31.2675 8.51661H25.7218V3.13229ZM32.6007 44.0928H1.88627V1.83781H23.8375V9.42635C23.8381 9.66853 23.9374 9.90064 24.1138 10.0719C24.2902 10.2431 24.5292 10.3396 24.7786 10.3401H32.5986L32.6007 44.0928Z" fill="black"/>
<path d="M27.8453 20.1328H6.64527C6.3954 20.1328 6.15578 20.2292 5.97909 20.4008C5.8024 20.5723 5.70312 20.805 5.70312 21.0476C5.70312 21.2902 5.8024 21.5228 5.97909 21.6944C6.15578 21.8659 6.3954 21.9623 6.64527 21.9623H27.8433C28.0931 21.9623 28.3328 21.8659 28.5094 21.6944C28.6861 21.5228 28.7854 21.2902 28.7854 21.0476C28.7854 20.805 28.6861 20.5723 28.5094 20.4008C28.3328 20.2292 28.0931 20.1328 27.8433 20.1328H27.8453Z" fill="black"/>
<path d="M27.8453 26.1709H6.64527C6.3954 26.1709 6.15578 26.2673 5.97909 26.4388C5.8024 26.6104 5.70312 26.8431 5.70312 27.0857C5.70312 27.3283 5.8024 27.5609 5.97909 27.7325C6.15578 27.904 6.3954 28.0004 6.64527 28.0004H27.8433C28.0931 28.0004 28.3328 27.904 28.5094 27.7325C28.6861 27.5609 28.7854 27.3283 28.7854 27.0857C28.7854 26.8431 28.6861 26.6104 28.5094 26.4388C28.3328 26.2673 28.0931 26.1709 27.8433 26.1709H27.8453Z" fill="black"/>
<path d="M27.8453 32.2056H6.64527C6.52155 32.2056 6.39906 32.2292 6.28475 32.2752C6.17044 32.3212 6.06658 32.3885 5.97909 32.4735C5.8916 32.5584 5.82221 32.6593 5.77486 32.7702C5.72752 32.8812 5.70312 33.0002 5.70312 33.1203C5.70312 33.2405 5.72752 33.3594 5.77486 33.4704C5.82221 33.5814 5.8916 33.6822 5.97909 33.7672C6.06658 33.8521 6.17044 33.9195 6.28475 33.9655C6.39906 34.0114 6.52155 34.0351 6.64527 34.0351H27.8433C27.967 34.0351 28.0895 34.0114 28.2038 33.9655C28.3181 33.9195 28.422 33.8521 28.5094 33.7672C28.5969 33.6822 28.6663 33.5814 28.7137 33.4704C28.761 33.3594 28.7854 33.2405 28.7854 33.1203C28.7854 33.0002 28.761 32.8812 28.7137 32.7702C28.6663 32.6593 28.5969 32.5584 28.5094 32.4735C28.422 32.3885 28.3181 32.3212 28.2038 32.2752C28.0895 32.2292 27.967 32.2056 27.8433 32.2056H27.8453Z" fill="black"/>
</svg>
