<svg width="40" height="31" viewBox="0 0 40 31" fill="none" xmlns="http://www.w3.org/2000/svg">
<mask id="path-1-inside-1" fill="white">
<path d="M39.2765 0.320801H0.7245C0.532483 0.320801 0.348331 0.378225 0.212555 0.480442C0.0767784 0.582658 0.000500028 0.721294 0.000500028 0.86585V9.05363C-0.00311702 9.12686 0.0129189 9.19989 0.0476489 9.26835C0.082379 9.33681 0.13509 9.39929 0.20263 9.45206C0.27017 9.50484 0.351152 9.54681 0.440734 9.57548C0.530316 9.60415 0.626658 9.61893 0.724 9.61893C0.821342 9.61893 0.917684 9.60415 1.00727 9.57548C1.09685 9.54681 1.17783 9.50484 1.24537 9.45206C1.31291 9.39929 1.36562 9.33681 1.40035 9.26835C1.43508 9.19989 1.45112 9.12686 1.4475 9.05363V6.23579L5.3725 9.19065L1.4485 12.1463V10.8311C1.45212 10.7578 1.43608 10.6848 1.40135 10.6163C1.36662 10.5479 1.31391 10.4854 1.24637 10.4326C1.17883 10.3799 1.09785 10.3379 1.00827 10.3092C0.918684 10.2805 0.822342 10.2658 0.725 10.2658C0.627658 10.2658 0.531316 10.2805 0.441734 10.3092C0.352152 10.3379 0.27117 10.3799 0.20363 10.4326C0.13609 10.4854 0.083379 10.5479 0.0486489 10.6163C0.0139189 10.6848 -0.00211702 10.7578 0.00150003 10.8311V29.889C0.00149984 30.0334 0.0776409 30.1719 0.213201 30.2741C0.348761 30.3763 0.532657 30.4338 0.7245 30.434H39.2765C39.4685 30.434 39.6527 30.3766 39.7884 30.2744C39.9242 30.1721 40.0005 30.0335 40.0005 29.889V0.86585C40.0005 0.721294 39.9242 0.582658 39.7884 0.480442C39.6527 0.378225 39.4685 0.320801 39.2765 0.320801V0.320801ZM37.3915 1.41015L33.6005 4.26111L29.8165 1.41015H37.3915ZM26.4805 1.41015L22.6935 4.26111L18.9065 1.41015H26.4805ZM23.8315 6.65963C23.9693 6.75186 24.1487 6.80102 24.3331 6.79707C24.5174 6.79313 24.6928 6.73638 24.8234 6.6384C24.9541 6.54043 25.0301 6.40862 25.0361 6.26986C25.0421 6.13111 24.9775 5.99587 24.8555 5.89174L23.7175 5.03201L28.1485 1.69622L38.1005 9.19065L33.6685 12.5272L26.5005 7.12413C26.434 7.07124 26.354 7.02893 26.2654 6.9997C26.1768 6.97047 26.0813 6.95491 25.9845 6.95394C25.8877 6.95297 25.7917 6.96661 25.7021 6.99405C25.6125 7.02149 25.531 7.06218 25.4627 7.11372C25.3943 7.16525 25.3403 7.22658 25.3039 7.29409C25.2676 7.36159 25.2495 7.43389 25.2509 7.50673C25.2523 7.57957 25.2731 7.65146 25.312 7.71815C25.3509 7.78484 25.4072 7.84498 25.4775 7.89502L27.1995 9.1914L22.7675 12.5279L12.8065 5.03201L17.2375 1.69622L23.8315 6.65963ZM21.7385 13.2981L11.7825 20.7933L7.3515 17.4567L17.3075 9.96154L21.7385 13.2981ZM15.5705 1.41015L11.7835 4.26111L8.0005 1.41015H15.5705ZM1.4485 1.41015H4.6595L1.4485 3.82824V1.41015ZM1.9005 5.03201L6.3275 1.69622L16.2835 9.1914L11.8515 12.5279L1.9005 5.03201ZM1.4525 13.6896L6.4005 9.96154L10.8315 13.2981L1.4515 20.3604L1.4525 13.6896ZM1.4525 22.7702L5.3775 25.7251L1.4485 28.6769V22.7672L1.4525 22.7702ZM2.6135 29.3469L6.4005 26.4929L10.1875 29.3439L2.6135 29.3469ZM1.9005 21.5642L6.3315 18.2276L16.2875 25.7228L11.8555 29.0593L1.9005 21.5642ZM13.5205 29.3439L17.3075 26.4929L21.0945 29.3439H13.5205ZM12.8065 21.5634L17.2385 18.2269L27.1945 25.722L22.7625 29.0586L12.8065 21.5634ZM24.4305 29.3439L28.2175 26.4929L32.0005 29.3439H24.4305ZM23.7165 21.5634L25.1865 20.4567C25.2537 20.4061 25.3071 20.346 25.3435 20.2799C25.3798 20.2138 25.3986 20.1429 25.3986 20.0713C25.3986 19.9997 25.3798 19.9288 25.3435 19.8627C25.3071 19.7966 25.2537 19.7365 25.1865 19.6859C25.1193 19.6352 25.0394 19.5951 24.9516 19.5677C24.8637 19.5403 24.7696 19.5262 24.6745 19.5262C24.5794 19.5262 24.4853 19.5403 24.3974 19.5677C24.3096 19.5951 24.2297 19.6352 24.1625 19.6859L22.6925 20.7925L18.2605 17.456L28.2165 9.96079L32.6485 13.2973L25.6105 18.5958C25.4746 18.698 25.3982 18.8367 25.3981 18.9813C25.398 19.126 25.4742 19.2647 25.61 19.367C25.7458 19.4694 25.93 19.5269 26.1221 19.527C26.3143 19.527 26.4986 19.4696 26.6345 19.3674L28.1485 18.2276L38.1005 25.7228L33.6685 29.0593L23.7165 21.5634ZM38.5525 29.3439H35.3415L38.5535 26.9258V29.3439H38.5525ZM38.5525 24.5183L34.6275 21.5634L38.5525 18.6078V24.5183ZM38.5465 17.0713L33.6005 20.7933L29.1685 17.4567L38.5495 10.3944V17.0668L38.5465 17.0713ZM38.5525 7.98687L34.6275 5.03201L38.5525 2.07715V7.98687Z"/>
</mask>
<path d="M39.2765 0.320801H0.7245C0.532483 0.320801 0.348331 0.378225 0.212555 0.480442C0.0767784 0.582658 0.000500028 0.721294 0.000500028 0.86585V9.05363C-0.00311702 9.12686 0.0129189 9.19989 0.0476489 9.26835C0.082379 9.33681 0.13509 9.39929 0.20263 9.45206C0.27017 9.50484 0.351152 9.54681 0.440734 9.57548C0.530316 9.60415 0.626658 9.61893 0.724 9.61893C0.821342 9.61893 0.917684 9.60415 1.00727 9.57548C1.09685 9.54681 1.17783 9.50484 1.24537 9.45206C1.31291 9.39929 1.36562 9.33681 1.40035 9.26835C1.43508 9.19989 1.45112 9.12686 1.4475 9.05363V6.23579L5.3725 9.19065L1.4485 12.1463V10.8311C1.45212 10.7578 1.43608 10.6848 1.40135 10.6163C1.36662 10.5479 1.31391 10.4854 1.24637 10.4326C1.17883 10.3799 1.09785 10.3379 1.00827 10.3092C0.918684 10.2805 0.822342 10.2658 0.725 10.2658C0.627658 10.2658 0.531316 10.2805 0.441734 10.3092C0.352152 10.3379 0.27117 10.3799 0.20363 10.4326C0.13609 10.4854 0.083379 10.5479 0.0486489 10.6163C0.0139189 10.6848 -0.00211702 10.7578 0.00150003 10.8311V29.889C0.00149984 30.0334 0.0776409 30.1719 0.213201 30.2741C0.348761 30.3763 0.532657 30.4338 0.7245 30.434H39.2765C39.4685 30.434 39.6527 30.3766 39.7884 30.2744C39.9242 30.1721 40.0005 30.0335 40.0005 29.889V0.86585C40.0005 0.721294 39.9242 0.582658 39.7884 0.480442C39.6527 0.378225 39.4685 0.320801 39.2765 0.320801V0.320801ZM37.3915 1.41015L33.6005 4.26111L29.8165 1.41015H37.3915ZM26.4805 1.41015L22.6935 4.26111L18.9065 1.41015H26.4805ZM23.8315 6.65963C23.9693 6.75186 24.1487 6.80102 24.3331 6.79707C24.5174 6.79313 24.6928 6.73638 24.8234 6.6384C24.9541 6.54043 25.0301 6.40862 25.0361 6.26986C25.0421 6.13111 24.9775 5.99587 24.8555 5.89174L23.7175 5.03201L28.1485 1.69622L38.1005 9.19065L33.6685 12.5272L26.5005 7.12413C26.434 7.07124 26.354 7.02893 26.2654 6.9997C26.1768 6.97047 26.0813 6.95491 25.9845 6.95394C25.8877 6.95297 25.7917 6.96661 25.7021 6.99405C25.6125 7.02149 25.531 7.06218 25.4627 7.11372C25.3943 7.16525 25.3403 7.22658 25.3039 7.29409C25.2676 7.36159 25.2495 7.43389 25.2509 7.50673C25.2523 7.57957 25.2731 7.65146 25.312 7.71815C25.3509 7.78484 25.4072 7.84498 25.4775 7.89502L27.1995 9.1914L22.7675 12.5279L12.8065 5.03201L17.2375 1.69622L23.8315 6.65963ZM21.7385 13.2981L11.7825 20.7933L7.3515 17.4567L17.3075 9.96154L21.7385 13.2981ZM15.5705 1.41015L11.7835 4.26111L8.0005 1.41015H15.5705ZM1.4485 1.41015H4.6595L1.4485 3.82824V1.41015ZM1.9005 5.03201L6.3275 1.69622L16.2835 9.1914L11.8515 12.5279L1.9005 5.03201ZM1.4525 13.6896L6.4005 9.96154L10.8315 13.2981L1.4515 20.3604L1.4525 13.6896ZM1.4525 22.7702L5.3775 25.7251L1.4485 28.6769V22.7672L1.4525 22.7702ZM2.6135 29.3469L6.4005 26.4929L10.1875 29.3439L2.6135 29.3469ZM1.9005 21.5642L6.3315 18.2276L16.2875 25.7228L11.8555 29.0593L1.9005 21.5642ZM13.5205 29.3439L17.3075 26.4929L21.0945 29.3439H13.5205ZM12.8065 21.5634L17.2385 18.2269L27.1945 25.722L22.7625 29.0586L12.8065 21.5634ZM24.4305 29.3439L28.2175 26.4929L32.0005 29.3439H24.4305ZM23.7165 21.5634L25.1865 20.4567C25.2537 20.4061 25.3071 20.346 25.3435 20.2799C25.3798 20.2138 25.3986 20.1429 25.3986 20.0713C25.3986 19.9997 25.3798 19.9288 25.3435 19.8627C25.3071 19.7966 25.2537 19.7365 25.1865 19.6859C25.1193 19.6352 25.0394 19.5951 24.9516 19.5677C24.8637 19.5403 24.7696 19.5262 24.6745 19.5262C24.5794 19.5262 24.4853 19.5403 24.3974 19.5677C24.3096 19.5951 24.2297 19.6352 24.1625 19.6859L22.6925 20.7925L18.2605 17.456L28.2165 9.96079L32.6485 13.2973L25.6105 18.5958C25.4746 18.698 25.3982 18.8367 25.3981 18.9813C25.398 19.126 25.4742 19.2647 25.61 19.367C25.7458 19.4694 25.93 19.5269 26.1221 19.527C26.3143 19.527 26.4986 19.4696 26.6345 19.3674L28.1485 18.2276L38.1005 25.7228L33.6685 29.0593L23.7165 21.5634ZM38.5525 29.3439H35.3415L38.5535 26.9258V29.3439H38.5525ZM38.5525 24.5183L34.6275 21.5634L38.5525 18.6078V24.5183ZM38.5465 17.0713L33.6005 20.7933L29.1685 17.4567L38.5495 10.3944V17.0668L38.5465 17.0713ZM38.5525 7.98687L34.6275 5.03201L38.5525 2.07715V7.98687Z" fill="#07173D" stroke="black" stroke-width="2" mask="url(#path-1-inside-1)"/>
</svg>
