<svg width="70" height="70" viewBox="0 0 70 70" fill="none" xmlns="http://www.w3.org/2000/svg">
<g clip-path="url(#clip0)">
<path d="M0 66.4998C0 68.4328 1.567 69.9999 3.5 69.9999H66.5C68.433 69.9999 70 68.4328 70 66.4998C70 64.5669 68.433 62.9999 66.5 62.9999H64.0127L67.1697 58.2655C68.9318 57.914 70.1415 56.2852 69.9687 54.4966C69.7959 52.7081 68.2969 51.3409 66.5 51.3332H59.5V46.6665H61.8333C62.2859 46.6663 62.6975 46.4045 62.8894 45.9946C63.0814 45.5848 63.019 45.1009 62.7293 44.7532L56.896 37.7532C56.6674 37.4991 56.3418 37.354 56 37.354C55.6582 37.354 55.3326 37.4991 55.104 37.7532L49.2707 44.7532C48.981 45.1009 48.9186 45.5848 49.1105 45.9946C49.3025 46.4045 49.7141 46.6663 50.1667 46.6665H52.5V51.3332H38.5V46.6665H40.8333C41.2859 46.6663 41.6975 46.4045 41.8895 45.9946C42.0814 45.5848 42.019 45.1009 41.7293 44.7532L35.896 37.7532C35.6674 37.4991 35.3418 37.354 35 37.354C34.6582 37.354 34.3326 37.4991 34.104 37.7532L28.2707 44.7532C27.981 45.1009 27.9186 45.5848 28.1105 45.9946C28.3025 46.4045 28.7141 46.6663 29.1667 46.6665H31.5V51.3332H17.5V46.6665H19.8333C20.2859 46.6663 20.6975 46.4045 20.8895 45.9946C21.0814 45.5848 21.019 45.1009 20.7293 44.7532L14.896 37.7532C14.6674 37.4991 14.3418 37.354 14 37.354C13.6582 37.354 13.3326 37.4991 13.104 37.7532L7.27067 44.7532C6.98103 45.1009 6.91862 45.5848 7.11055 45.9946C7.30248 46.4045 7.71411 46.6663 8.16667 46.6665H10.5V51.3332H3.5C1.567 51.3332 1.51667e-07 52.9002 1.51667e-07 54.8332C1.51667e-07 56.7662 1.567 58.3332 3.5 58.3332H5.98733L2.83033 63.0675C1.18758 63.3877 0.00143688 64.8262 0 66.4998H0ZM67.6667 66.4998C67.6667 67.1442 67.1443 67.6665 66.5 67.6665H3.5C2.85567 67.6665 2.33333 67.1442 2.33333 66.4998C2.33333 65.8555 2.85567 65.3332 3.5 65.3332H66.5C67.1443 65.3332 67.6667 65.8555 67.6667 66.4998ZM17.654 58.3332L14.5425 62.9999H11.5092L14.6207 58.3332H17.654ZM52.346 62.9999L55.4575 58.3332H58.4908L55.3793 62.9999H52.346ZM49.546 62.9999H46.5127L49.6242 58.3332H52.6575L49.546 62.9999ZM43.7127 62.9999H40.6793L43.7908 58.3332H46.8242L43.7127 62.9999ZM37.8793 62.9999H34.846L37.9575 58.3332H40.9908L37.8793 62.9999ZM32.046 62.9999H29.0127L32.1242 58.3332H35.1575L32.046 62.9999ZM26.2127 62.9999H23.1793L26.2908 58.3332H29.3242L26.2127 62.9999ZM20.3793 62.9999H17.346L20.4575 58.3332H23.4908L20.3793 62.9999ZM58.1793 62.9999L61.2908 58.3332H64.3242L61.2127 62.9999H58.1793ZM53.6667 44.3332H52.6575L56 40.3222L59.3425 44.3332H58.3333C57.689 44.3332 57.1667 44.8555 57.1667 45.4999V51.3332H54.8333V45.4999C54.8333 44.8555 54.311 44.3332 53.6667 44.3332ZM32.6667 44.3332H31.6575L35 40.3222L38.3425 44.3332H37.3333C36.689 44.3332 36.1667 44.8555 36.1667 45.4999V51.3332H33.8333V45.4999C33.8333 44.8555 33.311 44.3332 32.6667 44.3332ZM11.6667 44.3332H10.6575L14 40.3222L17.3425 44.3332H16.3333C15.689 44.3332 15.1667 44.8555 15.1667 45.4999V51.3332H12.8333V45.4999C12.8333 44.8555 12.311 44.3332 11.6667 44.3332ZM2.33333 54.8332C2.33333 54.1889 2.85567 53.6665 3.5 53.6665H66.5C67.1443 53.6665 67.6667 54.1889 67.6667 54.8332C67.6667 55.4775 67.1443 55.9999 66.5 55.9999H3.5C2.85567 55.9999 2.33333 55.4775 2.33333 54.8332ZM11.8207 58.3332L8.70917 62.9999H5.67583L8.78733 58.3332H11.8207Z" fill="#07173D"/>
<path d="M34.9993 34.9997C42.0835 34.9913 47.8243 29.2506 47.8327 22.1664C47.8327 11.272 36.2722 0.741694 35.7798 0.299527C35.3361 -0.0998424 34.6625 -0.0998424 34.2188 0.299527C33.7265 0.741694 22.166 11.272 22.166 22.1664C22.1744 29.2506 27.9152 34.9913 34.9993 34.9997ZM34.9993 2.78219C37.5555 5.31153 45.4993 13.8457 45.4993 22.1664C45.4993 27.9654 40.7983 32.6664 34.9993 32.6664C29.2004 32.6664 24.4993 27.9654 24.4993 22.1664C24.4993 13.8574 32.4455 5.31386 34.9993 2.78219Z" fill="#07173D"/>
<path d="M35.0007 30.3333C35.645 30.3333 36.1673 29.811 36.1673 29.1667C36.1673 28.5223 35.645 28 35.0007 28C31.7806 27.9961 29.1712 25.3867 29.1673 22.1667C29.1673 21.5223 28.645 21 28.0007 21C27.3563 21 26.834 21.5223 26.834 22.1667C26.8391 26.6749 30.4925 30.3282 35.0007 30.3333Z" fill="#07173D"/>
<path d="M9.33361 34.9996C14.5316 34.947 18.7064 30.6975 18.6669 25.4994C18.6669 17.5778 10.4723 9.9606 10.1223 9.64093C9.67614 9.23167 8.99108 9.23167 8.54495 9.64093C8.19495 9.9606 0.000278 17.5778 0.000278 25.4994C-0.0392223 30.6975 4.13566 34.947 9.33361 34.9996ZM9.33361 12.1423C11.3169 14.1898 16.3336 19.9274 16.3336 25.4994C16.3751 29.4097 13.2437 32.6157 9.33361 32.6663C5.42349 32.6157 2.29211 29.4097 2.33361 25.4994C2.33361 19.9391 7.35028 14.1921 9.33361 12.1423Z" fill="#07173D"/>
<path d="M9.33333 30.3332C9.97767 30.3332 10.5 29.8108 10.5 29.1665C10.5 28.5222 9.97767 27.9998 9.33333 27.9998C7.99983 27.9511 6.95671 26.8334 7 25.4997C7 24.8553 6.47767 24.333 5.83333 24.333C5.189 24.333 4.66667 24.8553 4.66667 25.4997C4.62375 28.1218 6.71129 30.284 9.33333 30.3332Z" fill="#07173D"/>
<path d="M60.6676 34.9996C65.8656 34.947 70.0404 30.6975 70.0009 25.4994C70.0009 17.5778 61.8063 9.9606 61.4563 9.64093C61.0101 9.23167 60.3251 9.23167 59.8789 9.64093C59.5289 9.9606 51.3343 17.5743 51.3343 25.4994C51.2948 30.6975 55.4696 34.947 60.6676 34.9996ZM60.6676 12.1423C62.6509 14.1898 67.6676 19.9274 67.6676 25.4994C67.6676 29.3654 64.5336 32.4994 60.6676 32.4994C56.8016 32.4994 53.6676 29.3654 53.6676 25.4994C53.6676 19.9391 58.6843 14.1921 60.6676 12.1423Z" fill="#07173D"/>
<path d="M60.6673 30.3332C61.3117 30.3332 61.834 29.8108 61.834 29.1665C61.834 28.5222 61.3117 27.9998 60.6673 27.9998C59.3338 27.9511 58.2907 26.8334 58.334 25.4997C58.334 24.8553 57.8117 24.333 57.1673 24.333C56.523 24.333 56.0006 24.8553 56.0006 25.4997C55.9577 28.1218 58.0453 30.284 60.6673 30.3332Z" fill="#07173D"/>
</g>
<defs>
<clipPath id="clip0">
<rect width="70" height="70" fill="white"/>
</clipPath>
</defs>
</svg>
