<svg width="22" height="31" viewBox="0 0 22 31" fill="none" xmlns="http://www.w3.org/2000/svg">
<path d="M20.6997 27.9205H20.6997C20.6971 28.1842 20.625 28.4389 20.4952 28.6685C20.3659 28.8972 20.1838 29.0939 19.9679 29.2527C19.752 29.4113 19.5034 29.5314 19.2385 29.6107L19.0951 29.1317L19.2385 29.6107C18.9744 29.6898 18.6951 29.728 18.4157 29.7249H3.59175C3.31234 29.728 3.03305 29.6898 2.76897 29.6107L2.91235 29.1317L2.76897 29.6107C2.50406 29.5314 2.25541 29.4113 2.03955 29.2527C1.82364 29.0939 1.6415 28.8972 1.51227 28.6685C1.38248 28.4389 1.31029 28.1842 1.30774 27.9205L1.30769 27.9157L1.30772 12.1896V12.1891H1.80772C1.80693 11.8881 1.94276 11.5959 2.19272 11.361L20.6997 27.9205ZM20.6997 27.9205V27.9157L20.6997 12.1902L20.6997 27.9205ZM11.0002 9.33496C11.5533 9.33503 12.1013 9.45814 12.5761 9.69698C13.0505 9.93562 13.4448 10.287 13.6856 10.7246C13.9289 11.1669 13.9975 11.6669 13.8694 12.1517C13.7424 12.6322 13.4359 13.0488 13.0208 13.3612C12.6064 13.6732 12.0926 13.876 11.5484 13.9575C11.0037 14.0391 10.4382 13.9978 9.9198 13.8361C9.40216 13.6747 8.93947 13.3954 8.6028 13.0161C8.26415 12.6345 8.06687 12.1655 8.06672 11.6672M11.0002 9.33496C10.6317 9.33462 10.2648 9.38892 9.91957 9.49638C9.57452 9.60379 9.25368 9.76357 8.97772 9.97132C8.7017 10.1791 8.47281 10.4334 8.31287 10.7246C8.15242 11.0167 8.06622 11.3376 8.06672 11.6672M11.0002 9.33496L10.9997 9.83496M11.0002 9.33496L10.9997 9.83496M11.0002 9.33496C11 9.33496 10.9999 9.33496 10.9997 9.33496V9.83496M11.0002 9.33496L10.9997 9.83496M8.06672 11.6672C8.06672 11.6673 8.06672 11.6673 8.06672 11.6674L8.56672 11.6666M8.06672 11.6672C8.06672 11.667 8.06672 11.6668 8.06672 11.6666H8.56672M10.9997 9.83496C11.4809 9.83496 11.9513 9.94239 12.3514 10.1436C12.7515 10.3449 13.0634 10.631 13.2475 10.9657C13.4317 11.3004 13.4798 11.6686 13.386 12.0239C13.2921 12.3792 13.0604 12.7056 12.7201 12.9618C12.3798 13.2179 11.9463 13.3924 11.4744 13.463C11.0024 13.5337 10.5132 13.4974 10.0687 13.3588C9.62408 13.2202 9.24409 12.9854 8.97675 12.6842C8.70941 12.383 8.56672 12.0289 8.56672 11.6666M10.9997 9.83496L8.56672 11.6666M11.3397 3.69864V4.14645L11.7848 4.19562C13.1854 4.35035 14.4293 4.89922 15.2744 5.70091C15.2745 5.70096 15.2745 5.701 15.2746 5.70105L20.7712 10.9307C20.7717 10.9312 20.7721 10.9316 20.7725 10.932C21.1674 11.3143 21.3595 11.7585 21.3627 12.1909V27.9245C21.3558 28.4216 21.0875 28.9372 20.5416 29.3412C19.9922 29.7479 19.2277 29.9877 18.4137 29.9828H18.4107L3.57272 29.9828L3.57151 29.9828C2.75736 29.9848 1.99455 29.7422 1.44803 29.3338C0.904658 28.9277 0.639856 28.411 0.636719 27.9135V12.1895C0.638913 11.7602 0.83038 11.3184 1.2258 10.9391C1.22609 10.9388 1.22638 10.9385 1.22668 10.9382L6.74395 5.70094L6.74396 5.70095L6.74676 5.69825C7.58047 4.89442 8.82151 4.34464 10.2206 4.19584L10.6677 4.14829V3.69864V1.00259C10.6681 1.0018 10.6686 1.00067 10.6694 0.999178C10.6736 0.991659 10.6854 0.9744 10.7133 0.953422C10.7723 0.909 10.8757 0.869629 11.0037 0.869629C11.1317 0.869629 11.2351 0.909 11.2941 0.953422C11.322 0.9744 11.3339 0.991659 11.338 0.999178C11.3388 1.00067 11.3394 1.0018 11.3397 1.00259V3.69864ZM1.85028 10.9966C1.84983 10.997 1.84938 10.9975 1.84893 10.9979L20.6997 12.1891V12.1892C20.7004 11.7303 20.4954 11.31 20.1632 10.9906L20.1609 10.9885L14.6456 5.75414C14.6453 5.75386 14.645 5.75358 14.6447 5.7533C14.1962 5.32398 13.6329 4.98619 13.0033 4.75765L13.003 4.75752C12.6546 4.63136 12.2884 4.539 11.9129 4.48188L11.3377 4.39441V4.9762V8.63872V9.06654L11.7604 9.1327C12.6674 9.27467 13.4453 9.66137 13.9577 10.1886C14.4655 10.7111 14.6722 11.3255 14.5918 11.9145C14.5106 12.5089 14.1336 13.0984 13.4723 13.5477C12.8098 13.9977 11.9299 14.2577 11.0017 14.2577C10.0735 14.2577 9.19362 13.9977 8.53118 13.5477C7.8698 13.0984 7.49287 12.5089 7.41167 11.9145C7.3312 11.3255 7.53793 10.7111 8.04572 10.1886C8.55816 9.66137 9.33603 9.27467 10.243 9.1327L10.6657 9.06654V8.63872V4.9762V4.39501L10.091 4.4818C9.03062 4.64197 8.0569 5.08367 7.35486 5.75319C7.35484 5.75321 7.35482 5.75323 7.3548 5.75325C7.35474 5.75331 7.35467 5.75337 7.35461 5.75343L1.85028 10.9966Z" fill="#07173D" stroke="black"/>
<path d="M10.999 23.1052V22.6052C11.2926 22.6052 11.5869 22.6703 11.846 22.8006C12.1045 22.9306 12.3304 23.1276 12.4718 23.3847C12.6158 23.6463 12.6584 23.9475 12.5809 24.2406C12.5046 24.5294 12.3231 24.7698 12.0917 24.944C11.8609 25.1178 11.5811 25.2265 11.2916 25.2698C11.0016 25.3132 10.7001 25.2915 10.4216 25.2047C10.1439 25.1181 9.88623 24.9655 9.69383 24.7487C9.5001 24.5304 9.37999 24.2536 9.37904 23.952C9.37869 23.9512 9.37815 23.95 9.37732 23.9485C9.37319 23.941 9.36131 23.9238 9.33345 23.9028C9.27444 23.8584 9.17102 23.819 9.04303 23.819C8.91505 23.819 8.81162 23.8584 8.75261 23.9028C8.72475 23.9238 8.71287 23.941 8.70874 23.9485C8.70793 23.95 8.70739 23.9511 8.70704 23.9519C8.70861 24.2514 8.83531 24.5648 9.10732 24.844C9.38304 25.127 9.78927 25.3532 10.2788 25.4697L10.663 25.5612V25.9562V26.2672C10.6634 26.268 10.6639 26.2692 10.6647 26.2707C10.6689 26.2782 10.6807 26.2954 10.7086 26.3164C10.7676 26.3608 10.871 26.4002 10.999 26.4002C11.127 26.4002 11.2304 26.3608 11.2894 26.3164C11.3173 26.2954 11.3292 26.2782 11.3333 26.2707C11.3341 26.2692 11.3347 26.268 11.335 26.2672V25.9562V25.5607L11.7199 25.4696C12.3327 25.3246 12.8054 25.0111 13.065 24.6383C13.3167 24.2769 13.3587 23.8798 13.2083 23.5132C13.0799 23.2085 12.813 22.9142 12.4132 22.6938C12.0131 22.4733 11.5175 22.3485 10.9992 22.3487L10.999 22.3487C10.7054 22.3487 10.4111 22.2836 10.1521 22.1533C9.89361 22.0233 9.66766 21.8263 9.52622 21.5692C9.38224 21.3076 9.33971 21.0064 9.41714 20.7133C9.49345 20.4245 9.67495 20.1841 9.90635 20.0099L10.2071 20.4093L9.90635 20.0099C10.1371 19.8361 10.417 19.7274 10.7065 19.6841C10.9965 19.6407 11.298 19.6624 11.5765 19.7492L11.4276 20.2266L11.5765 19.7492C11.8542 19.8358 12.1118 19.9884 12.3042 20.2052C12.498 20.4235 12.6181 20.7003 12.619 21.0019C12.6194 21.0027 12.6199 21.0039 12.6207 21.0054C12.6249 21.0129 12.6367 21.0301 12.6646 21.0511C12.7236 21.0955 12.827 21.1349 12.955 21.1349C13.083 21.1349 13.1864 21.0955 13.2454 21.0511C13.2733 21.0301 13.2852 21.0129 13.2893 21.0054C13.2901 21.0039 13.2907 21.0028 13.291 21.002C13.2895 20.7025 13.1627 20.3891 12.8907 20.1099C12.615 19.8269 12.2088 19.6007 11.7193 19.4842L11.335 19.3927V18.9977V18.7243C11.3347 18.7235 11.3341 18.7224 11.3333 18.7209C11.3292 18.7134 11.3173 18.6961 11.2894 18.6751C11.2304 18.6307 11.127 18.5913 10.999 18.5913C10.871 18.5913 10.7676 18.6307 10.7086 18.6751C10.6807 18.6961 10.6689 18.7134 10.6647 18.7209C10.6639 18.7224 10.6634 18.7235 10.663 18.7243V18.9977V19.3927L10.2788 19.4842C9.72934 19.615 9.28937 19.8831 9.01877 20.2107C8.75301 20.5326 8.66659 20.8882 8.73437 21.2213C8.8035 21.5609 9.04003 21.9077 9.45543 22.1768C9.87133 22.4462 10.419 22.6042 10.9999 22.6052L10.999 23.1052ZM10.999 23.1052C11.2205 23.1052 11.4371 23.1546 11.6213 23.2473C11.8055 23.3399 11.949 23.4716 12.0338 23.6257C12.1185 23.7798 12.1407 23.9493 12.0975 24.1129C12.0543 24.2764 11.9476 24.4267 11.791 24.5446C11.6344 24.6625 11.4348 24.7428 11.2175 24.7753L10.999 23.1052Z" fill="#07173D" stroke="black"/>
</svg>
