<svg width="42" height="18" viewBox="0 0 42 18" fill="none" xmlns="http://www.w3.org/2000/svg">
<path d="M38.544 6.45301H37.93V5.19729C37.9289 4.50091 37.561 3.83328 36.9069 3.34086C36.2528 2.84845 35.366 2.57146 34.441 2.57066H33.571C33.3686 2.0028 32.8988 1.5097 32.2493 1.18325C31.5997 0.8568 30.8147 0.719265 30.0404 0.796272C29.2661 0.873278 28.5555 1.15957 28.0408 1.60181C27.5261 2.04405 27.2426 2.61207 27.243 3.20003V7.21111H14.757V3.20003C14.7574 2.61207 14.4739 2.04405 13.9592 1.60181C13.4445 1.15957 12.7339 0.873278 11.9596 0.796272C11.1853 0.719265 10.4003 0.8568 9.75073 1.18325C9.10117 1.5097 8.63142 2.0028 8.429 2.57066H7.559C6.63398 2.57146 5.74716 2.84845 5.09307 3.34086C4.43899 3.83328 4.07106 4.50091 4.07 5.19729V6.45301H3.456C2.80556 6.4536 2.18194 6.64818 1.72163 6.99415C1.26133 7.34011 1.00185 7.80928 1 8.29895V10.3933C1.00079 10.8835 1.25981 11.3534 1.72022 11.7001C2.18064 12.0467 2.80487 12.2417 3.456 12.2423H4.07V13.5085C4.07106 14.2049 4.43899 14.8725 5.09307 15.365C5.74716 15.8574 6.63398 16.1344 7.559 16.1352H8.429C8.63142 16.703 9.10117 17.1961 9.75073 17.5226C10.4003 17.849 11.1853 17.9866 11.9596 17.9095C12.7339 17.8325 13.4445 17.5462 13.9592 17.104C14.4739 16.6618 14.7574 16.0937 14.757 15.5058V11.494H25.457C25.6124 11.494 25.7615 11.4475 25.8714 11.3647C25.9813 11.282 26.043 11.1698 26.043 11.0528C26.043 10.9358 25.9813 10.8236 25.8714 10.7409C25.7615 10.6581 25.6124 10.6116 25.457 10.6116H14.757V8.09342H27.243V15.505C27.2426 16.093 27.5261 16.661 28.0408 17.1033C28.5555 17.5455 29.2661 17.8318 30.0404 17.9088C30.8147 17.9858 31.5997 17.8483 32.2493 17.5218C32.8988 17.1954 33.3686 16.7023 33.571 16.1344H34.441C35.3658 16.1336 36.2525 15.8567 36.9066 15.3645C37.5606 14.8722 37.9287 14.2048 37.93 13.5085V12.246H38.544C39.1951 12.2454 39.8194 12.0504 40.2798 11.7038C40.7402 11.3572 40.9992 10.8873 41 10.3971V8.29895C40.9981 7.80928 40.7387 7.34011 40.2784 6.99415C39.8181 6.64818 39.1944 6.4536 38.544 6.45301ZM4.07 11.3637H3.456C3.11562 11.3633 2.78934 11.2614 2.54866 11.0802C2.30798 10.899 2.17253 10.6533 2.172 10.3971V8.29895C2.17358 8.04322 2.3095 7.79836 2.55007 7.61782C2.79063 7.43727 3.11632 7.33572 3.456 7.33532H4.07V11.3637ZM13.586 15.5043C13.586 15.9136 13.37 16.3061 12.9856 16.5956C12.6011 16.885 12.0797 17.0476 11.536 17.0476C10.9923 17.0476 10.4709 16.885 10.0864 16.5956C9.70198 16.3061 9.486 15.9136 9.486 15.5043V6.60508C9.486 6.48808 9.42426 6.37587 9.31436 6.29313C9.20447 6.2104 9.05542 6.16392 8.9 6.16392C8.74458 6.16392 8.59553 6.2104 8.48564 6.29313C8.37574 6.37587 8.314 6.48808 8.314 6.60508V15.2528H7.559C6.94474 15.2522 6.35586 15.0683 5.92151 14.7413C5.48716 14.4143 5.24279 13.971 5.242 13.5085V5.19729C5.24279 4.73485 5.48716 4.29153 5.92151 3.96453C6.35586 3.63754 6.94474 3.45358 7.559 3.45298H8.318V4.65148C8.318 4.76849 8.37974 4.8807 8.48964 4.96343C8.59953 5.04616 8.74858 5.09264 8.904 5.09264C9.05942 5.09264 9.20847 5.04616 9.31836 4.96343C9.42826 4.8807 9.49 4.76849 9.49 4.65148V3.20003C9.49 2.79072 9.70598 2.39817 10.0904 2.10875C10.4749 1.81932 10.9963 1.65673 11.54 1.65673C12.0837 1.65673 12.6051 1.81932 12.9896 2.10875C13.374 2.39817 13.59 2.79072 13.59 3.20003V15.505L13.586 15.5043ZM32.511 15.5043C32.511 15.9136 32.295 16.3061 31.9106 16.5956C31.5261 16.885 31.0047 17.0476 30.461 17.0476C29.9173 17.0476 29.3959 16.885 29.0114 16.5956C28.627 16.3061 28.411 15.9136 28.411 15.5043V3.20003C28.411 2.79072 28.627 2.39817 29.0114 2.10875C29.3959 1.81932 29.9173 1.65673 30.461 1.65673C31.0047 1.65673 31.5261 1.81932 31.9106 2.10875C32.295 2.39817 32.511 2.79072 32.511 3.20003V15.5043ZM36.759 13.5078C36.7582 13.9702 36.5138 14.4135 36.0795 14.7405C35.6451 15.0675 35.0563 15.2515 34.442 15.2521H33.683V3.45298H34.442C35.0563 3.45358 35.6451 3.63754 36.0795 3.96453C36.5138 4.29153 36.7582 4.73485 36.759 5.19729V13.5078ZM39.829 10.3963C39.8285 10.6526 39.693 10.8982 39.4523 11.0794C39.2117 11.2606 38.8854 11.3626 38.545 11.363H37.93V7.33532H38.544C38.8837 7.33572 39.2094 7.43727 39.4499 7.61782C39.6905 7.79836 39.8264 8.04322 39.828 8.29895L39.829 10.3963Z" fill="#07173D" stroke="black" stroke-width="0.078"/>
</svg>
