<svg width="70" height="70" viewBox="0 0 70 70" fill="none" xmlns="http://www.w3.org/2000/svg">
<path d="M54.8327 44.3335H16.3327C15.6884 44.3335 15.166 44.8559 15.166 45.5002V61.8335C15.166 62.4778 15.6884 63.0002 16.3327 63.0002H54.8327C55.477 63.0002 55.9993 62.4778 55.9993 61.8335V45.5002C55.9993 44.8559 55.477 44.3335 54.8327 44.3335ZM53.666 60.6668H17.4993V52.5002H45.4993V54.8335C45.4993 55.4778 46.0217 56.0002 46.666 56.0002C47.3103 56.0002 47.8327 55.4778 47.8327 54.8335V52.5002H50.166C50.8103 52.5002 51.3327 51.9778 51.3327 51.3335C51.3327 50.6892 50.8103 50.1668 50.166 50.1668H17.4993V46.6668H53.666V60.6668Z" fill="#07173D"/>
<path d="M22.1673 33.8335H19.834V36.1668H22.1673V33.8335Z" fill="#07173D"/>
<path d="M50.1673 33.8335H47.834V36.1668H50.1673V33.8335Z" fill="#07173D"/>
<path d="M68.8333 30.3333H64.1667V15.1667C64.1534 11.0531 62.469 7.12177 59.5 4.27467V1.16667C59.5 0.522375 58.9776 0 58.3333 0H11.6667C11.0224 0 10.5 0.522375 10.5 1.16667V4.27467C7.53098 7.12177 5.8466 11.0531 5.83333 15.1667V30.3333H1.16667C0.522375 30.3333 0 30.8557 0 31.5V54.8333C0 55.4776 0.522375 56 1.16667 56H5.89283C6.50679 63.8924 13.0837 69.9873 21 70H49C56.9163 69.9873 63.4932 63.8924 64.1072 56H68.8333C69.4776 56 70 55.4776 70 54.8333V31.5C70 30.8557 69.4776 30.3333 68.8333 30.3333ZM5.83333 53.6667H2.33333V37.3333H5.83333V53.6667ZM5.83333 35H2.33333V32.6667H5.83333V35ZM12.8333 2.33333H57.1667V25.0833L54.8333 26.8333V16.3333C54.8333 15.689 54.311 15.1667 53.6667 15.1667H44.3333C43.689 15.1667 43.1667 15.689 43.1667 16.3333V33.0353C37.962 35.3208 32.038 35.3208 26.8333 33.0353V16.3333C26.8333 15.689 26.311 15.1667 25.6667 15.1667H16.3333C15.689 15.1667 15.1667 15.689 15.1667 16.3333V26.8333L12.8333 25.0833V2.33333ZM45.5 22.1667V17.5H52.5V22.1667H45.5ZM52.5 24.5V36.75L49 39.375L45.5 36.75V24.5H52.5ZM17.5 22.1667V17.5H24.5V22.1667H17.5ZM24.5 24.5V36.75L21 39.375L17.5 36.75V24.5H24.5ZM61.8333 54.8333C61.825 61.9175 56.0841 67.6583 49 67.6667H21C13.9159 67.6583 8.17498 61.9175 8.16667 54.8333V15.1667C8.17367 12.5421 8.98829 9.98317 10.5 7.83767V25.6667C10.5 26.0339 10.673 26.3796 10.9667 26.6L15.1667 29.75V37.3333C15.1667 37.7005 15.3396 38.0463 15.6333 38.2667L20.3 41.7667C20.7147 42.0777 21.2852 42.0777 21.7 41.7667L26.3667 38.2667C26.6604 38.0463 26.8333 37.7005 26.8333 37.3333V35.5553C32.0839 37.6103 37.9161 37.6103 43.1667 35.5553V37.3333C43.1667 37.7005 43.3396 38.0463 43.6333 38.2667L48.3 41.7667C48.7147 42.0777 49.2852 42.0777 49.7 41.7667L54.3667 38.2667C54.6604 38.0463 54.8333 37.7005 54.8333 37.3333V29.75L59.0333 26.6C59.327 26.3796 59.5 26.0339 59.5 25.6667V7.83767C61.0117 9.98317 61.8263 12.5421 61.8333 15.1667V54.8333ZM67.6667 53.6667H64.1667V37.3333H67.6667V53.6667ZM67.6667 35H64.1667V32.6667H67.6667V35Z" fill="#07173D"/>
</svg>
