<svg width="42" height="30" viewBox="0 0 42 30" fill="none" xmlns="http://www.w3.org/2000/svg">
<path d="M21.0005 17.257C19.457 17.2579 17.9346 16.9875 16.5545 16.4673L2.4805 11.1462C2.03821 10.9791 1.66588 10.7232 1.40463 10.4068C1.14338 10.0904 1.00337 9.72578 1.00006 9.35323C0.996749 8.98068 1.13027 8.61469 1.38587 8.29568C1.64148 7.97666 2.00922 7.71703 2.4485 7.54546L16.4375 2.07991C17.8475 1.52981 19.4124 1.24268 21.0005 1.24268C22.5886 1.24268 24.1535 1.52981 25.5635 2.07991L39.5525 7.54546C39.9918 7.71703 40.3595 7.97666 40.6151 8.29568C40.8707 8.61469 41.0042 8.98068 41.0009 9.35323C40.9976 9.72578 40.8576 10.0904 40.5964 10.4068C40.3351 10.7232 39.9628 10.9791 39.5205 11.1462L25.4465 16.4673C24.0664 16.9875 22.544 17.2579 21.0005 17.257ZM16.7075 2.47138L16.9775 2.86286L2.9885 8.3284C2.73972 8.42474 2.53129 8.57111 2.38637 8.75126C2.24146 8.93141 2.16572 9.13828 2.16759 9.34889C2.16945 9.55949 2.24884 9.76559 2.39694 9.94427C2.54503 10.1229 2.75604 10.2672 3.0065 10.361L17.0805 15.679C18.2976 16.1368 19.6395 16.3751 21 16.3751C22.3605 16.3751 23.7024 16.1368 24.9195 15.679L38.9935 10.3573C39.244 10.2635 39.455 10.1192 39.6031 9.9405C39.7511 9.76182 39.8305 9.55573 39.8324 9.34513C39.8343 9.13452 39.7585 8.92765 39.6136 8.7475C39.4687 8.56735 39.2603 8.42097 39.0115 8.32464L25.0235 2.86286C23.7804 2.37783 22.4007 2.12466 21.0005 2.12466C19.6003 2.12466 18.2206 2.37783 16.9775 2.86286L16.7075 2.47138Z" fill="#07173D" stroke="black" stroke-width="0.5"/>
<path d="M21 23.3113C19.4565 23.3123 17.9341 23.0419 16.554 22.5215L2.47999 17.2028C2.03775 17.0356 1.6655 16.7796 1.40434 16.4632C1.14317 16.1467 1.00326 15.7821 1.00006 15.4095C0.996849 15.037 1.13047 14.671 1.38616 14.352C1.64185 14.0331 2.00967 13.7735 2.44899 13.602L6.67499 11.951L7.21499 12.734L2.98799 14.3827C2.73921 14.479 2.53078 14.6254 2.38587 14.8055C2.24095 14.9857 2.16521 15.1926 2.16708 15.4032C2.16894 15.6138 2.24833 15.8199 2.39643 15.9986C2.54453 16.1772 2.75553 16.3215 3.00599 16.4153L17.08 21.7333C18.2971 22.191 19.639 22.4292 20.9995 22.4292C22.36 22.4292 23.7018 22.191 24.919 21.7333L38.993 16.4116C39.2435 16.3177 39.4545 16.1735 39.6025 15.9948C39.7506 15.8161 39.83 15.61 39.8319 15.3994C39.8338 15.1888 39.758 14.9819 39.6131 14.8018C39.4682 14.6216 39.2598 14.4753 39.011 14.3789L34.785 12.728L35.325 11.945L39.551 13.596C39.9924 13.7669 40.3622 14.0266 40.6194 14.3462C40.8766 14.6658 41.011 15.0329 41.0078 15.4066C41.0046 15.7802 40.8638 16.1459 40.6012 16.463C40.3386 16.7801 39.9643 17.0362 39.52 17.2028L25.446 22.5215C24.0659 23.0419 22.5435 23.3123 21 23.3113Z" fill="#07173D" stroke="black" stroke-width="0.5"/>
<path d="M14.8202 15.7589C14.689 15.7589 14.5616 15.7257 14.4584 15.6647C14.3552 15.6036 14.2822 15.5183 14.2511 15.4224C14.22 15.3264 14.2325 15.2253 14.2868 15.1354C14.341 15.0454 14.4338 14.9718 14.5502 14.9263L16.4382 14.1885C17.7481 13.6741 19.1948 13.3878 20.6714 13.3508C22.148 13.3138 23.6168 13.527 24.9692 13.9747C25.0397 13.9979 25.1035 14.0314 25.1568 14.0732C25.2102 14.1149 25.252 14.1642 25.2801 14.2182C25.3081 14.2722 25.3218 14.3298 25.3203 14.3877C25.3187 14.4456 25.3021 14.5028 25.2712 14.5559C25.2403 14.609 25.1959 14.657 25.1404 14.6971C25.0849 14.7373 25.0194 14.7688 24.9477 14.7899C24.8761 14.811 24.7995 14.8213 24.7226 14.8202C24.6456 14.819 24.5697 14.8065 24.4992 14.7832C23.3067 14.3887 22.0117 14.2007 20.7098 14.2333C19.4079 14.2659 18.1323 14.5181 16.9772 14.9714L15.0892 15.7092C15.0061 15.7417 14.9139 15.7587 14.8202 15.7589Z" fill="#07173D" stroke="black" stroke-width="0.5"/>
<path d="M21.001 29.3655C19.4575 29.3665 17.935 29.0961 16.555 28.5758L2.48096 23.2548C2.03898 23.0875 1.66698 22.8316 1.406 22.5152C1.14502 22.1988 1.00522 21.8343 1.00201 21.4619C0.998803 21.0895 1.13232 20.7237 1.38783 20.4048C1.64334 20.0859 2.0109 19.8263 2.44996 19.6548L12.141 15.868C12.2094 15.8402 12.2845 15.8229 12.3619 15.8171C12.4393 15.8113 12.5174 15.8172 12.5918 15.8344C12.6661 15.8516 12.7352 15.8798 12.7949 15.9173C12.8547 15.9548 12.9039 16.0008 12.9397 16.0528C12.9756 16.1048 12.9973 16.1616 13.0037 16.2199C13.0101 16.2783 13.0009 16.337 12.9769 16.3927C12.9528 16.4484 12.9142 16.4999 12.8634 16.5442C12.8126 16.5886 12.7506 16.6249 12.681 16.651L2.98896 20.44C2.74019 20.5363 2.53176 20.6827 2.38684 20.8628C2.24192 21.043 2.16619 21.2498 2.16805 21.4604C2.16992 21.6711 2.24931 21.8771 2.3974 22.0558C2.5455 22.2345 2.7565 22.3788 3.00696 22.4726L17.081 27.7876C18.2981 28.2453 19.6399 28.4836 21.0005 28.4836C22.361 28.4836 23.7029 28.2453 24.92 27.7876L38.994 22.4666C39.2444 22.3727 39.4554 22.2285 39.6035 22.0498C39.7516 21.8711 39.831 21.665 39.8329 21.4544C39.8347 21.2438 39.759 21.0369 39.6141 20.8568C39.4692 20.6766 39.2607 20.5303 39.012 20.4339L26.912 15.7062C26.8423 15.6801 26.7803 15.6438 26.7295 15.5994C26.6787 15.5551 26.6402 15.5036 26.6161 15.4479C26.592 15.3922 26.5829 15.3335 26.5892 15.2751C26.5956 15.2168 26.6174 15.16 26.6532 15.108C26.689 15.056 26.7383 15.01 26.798 14.9725C26.8577 14.935 26.9268 14.9068 27.0011 14.8896C27.0755 14.8724 27.1536 14.8665 27.231 14.8723C27.3084 14.8781 27.3835 14.8954 27.452 14.9232L39.552 19.651C39.991 19.8226 40.3586 20.0821 40.6141 20.401C40.8696 20.7199 41.0031 21.0857 40.9999 21.4582C40.9967 21.8306 40.8569 22.1951 40.5959 22.5114C40.3349 22.8278 39.9629 23.0838 39.521 23.251L25.447 28.5758C24.0669 29.0961 22.5444 29.3665 21.001 29.3655Z" fill="#07173D" stroke="black" stroke-width="0.5"/>
<path d="M6.9452 12.7814C6.81399 12.7814 6.68658 12.7482 6.5834 12.6872C6.48021 12.6262 6.40721 12.5409 6.37609 12.4449C6.34498 12.3489 6.35754 12.2479 6.41177 12.1579C6.466 12.068 6.55876 11.9943 6.6752 11.9488L16.4382 8.13421C17.8481 7.58423 19.4128 7.29716 21.0007 7.29716C22.5886 7.29716 24.1533 7.58423 25.5632 8.13421C25.5632 8.13421 26.6402 8.46922 26.3202 8.92694C26.0002 9.38466 25.0202 8.91715 25.0202 8.91715C23.7771 8.43206 22.3974 8.17886 20.9972 8.17886C19.597 8.17886 18.2173 8.43206 16.9742 8.91715L7.2142 12.7317C7.13115 12.7644 7.03887 12.7814 6.9452 12.7814Z" fill="#07173D" stroke="black" stroke-width="0.5"/>
<path d="M35.0545 12.7815C34.9608 12.7814 34.8686 12.7644 34.7855 12.7318L27.7995 10.0028C27.6643 9.94775 27.5632 9.85491 27.518 9.74429C27.4729 9.63367 27.4873 9.51413 27.5581 9.41142C27.629 9.30871 27.7506 9.23108 27.8967 9.19524C28.0429 9.1594 28.2019 9.16824 28.3395 9.21984L35.3235 11.9489C35.4399 11.9944 35.5327 12.068 35.5869 12.158C35.6412 12.2479 35.6537 12.349 35.6226 12.4449C35.5915 12.5409 35.5185 12.6262 35.4153 12.6873C35.3121 12.7483 35.1847 12.7815 35.0535 12.7815H35.0545Z" fill="#07173D" stroke="black" stroke-width="0.5"/>
</svg>
