<svg width="50" height="70" viewBox="0 0 50 70" fill="none" xmlns="http://www.w3.org/2000/svg">
<path fill-rule="evenodd" clip-rule="evenodd" d="M43.7947 57.2573L37.5981 61.2013C37.2576 61.4182 36.8981 61.5948 36.5399 61.7739V67.2869H11.0044V60.6098C7.33543 59.6373 4.61994 56.3 4.61994 52.3296V41.7501C4.61994 39.4029 6.52822 37.4946 8.87669 37.4946C9.67885 37.4946 10.423 37.7305 11.065 38.1189C11.427 35.073 13.5156 32.5555 16.3244 31.5667V28.9597C16.2324 28.9635 16.1428 28.9824 16.0507 28.9824C10.9212 28.9824 6.74768 24.8089 6.74768 19.6793V11.8507C4.32354 11.3562 2.49219 9.20706 2.49219 6.63787C2.49219 3.70418 4.87849 1.31787 7.81219 1.31787H18.7448C26.2115 1.31787 32.2844 7.39084 32.2844 14.8575C32.2844 19.3955 30.0306 23.6069 26.2556 26.1218L25.8999 26.3589V30.7128L28.9244 29.4162C29.598 29.1287 30.3093 28.9824 31.0421 28.9824C32.8419 28.9824 34.5143 29.8779 35.5133 31.375L45.9527 47.0361C46.7561 48.2393 47.1812 49.6406 47.1812 51.0898C47.1812 53.6035 45.9161 55.9078 43.7947 57.2573ZM38.0345 52.882C38.4558 53.8153 38.6689 54.808 38.6689 55.8346C38.6689 56.6923 38.51 57.5108 38.2351 58.2739L42.652 55.4626C42.734 55.4108 42.8059 55.349 42.8853 55.2923L36.5399 45.7748V49.5611L38.0345 52.882ZM36.5399 55.8346C36.5399 55.1132 36.3898 54.4132 36.0934 53.7561L36.0001 53.548L34.7981 54.8798L36.4529 56.7112C36.5021 56.4249 36.5399 56.1348 36.5399 55.8346ZM33.3628 56.4665L31.5945 58.4265L33.4574 60.4962C34.2835 60.1431 34.9861 59.5654 35.5183 58.8553L33.3628 56.4665ZM26.9581 56.4564L24.8644 58.7759C25.4005 59.4847 26.1017 60.0586 26.9203 60.4281L28.7289 58.4253L26.9581 56.4564ZM27.7628 52.3914H26.161L26.9607 53.2793L27.7628 52.3914ZM25.5266 54.8672L23.7722 52.9173V55.5824C23.7722 55.9595 23.8138 56.3253 23.8895 56.6809L25.5266 54.8672ZM30.163 56.8373L31.9313 54.8798L30.1567 52.9148L28.3909 54.8685L30.163 56.8373ZM29.3583 60.9036H30.9601L30.1605 60.0144L29.3583 60.9036ZM28.0289 46.0069H34.4122V43.8791H28.0289V46.0069ZM28.0289 48.1346V50.2624H34.4122V48.1346H28.0289ZM32.5506 52.3914L33.3641 53.2919L34.1789 52.3914H32.5506ZM13.1322 65.1591H34.4122V62.6025C33.7967 62.7716 33.1661 62.8788 32.5266 62.9444C32.181 62.9961 31.8316 63.0314 31.4722 63.0314V63.0188C31.4192 63.02 31.3675 63.0314 31.3145 63.0314H29.0922C24.9868 63.0314 21.6444 59.689 21.6444 55.5824V54.1735L21.2497 55.2595C20.0225 58.6346 16.7835 60.9036 13.1927 60.9036C13.1725 60.9036 13.1524 60.8998 13.1322 60.8998V65.1591ZM11.0044 41.7501C11.0044 40.5771 10.0497 39.6224 8.87669 39.6224C7.70246 39.6224 6.74768 40.5771 6.74768 41.7501V43.8791H11.0044V41.7501ZM11.0044 54.5191V46.0069H6.74768V52.3296C6.74768 55.8838 9.63849 58.7746 13.1927 58.7746C15.8918 58.7746 18.3273 57.0694 19.2506 54.533L21.6444 47.9492V38.1517L21.5587 38.1101C20.754 37.7078 19.8534 37.4946 18.9542 37.4946C15.7443 37.4946 13.1322 40.1054 13.1322 43.3166V54.5191H11.0044ZM13.2861 37.7519C14.7289 36.2813 16.7356 35.3669 18.9542 35.3669C19.8673 35.3669 20.7817 35.5283 21.6444 35.8361V33.9404C21.6444 33.9253 21.6507 33.9126 21.6507 33.8988L21.5587 33.8534C20.754 33.451 19.8534 33.2391 18.9542 33.2391C16.1945 33.2391 13.8826 35.1701 13.2861 37.7519ZM8.87669 19.6793C8.87669 23.6359 12.0942 26.8546 16.0507 26.8546C16.8252 26.8546 17.5882 26.731 18.321 26.4876L20.2444 25.8456L20.918 27.8624L18.9945 28.5044C18.8167 28.5636 18.6325 28.5901 18.4522 28.638V31.1353C18.6199 31.1253 18.7852 31.1101 18.9542 31.1101C20.1814 31.1101 21.4111 31.4002 22.5109 31.9501L22.7758 32.0826C22.8313 32.0523 22.8767 32.0081 22.936 31.9829L23.7722 31.6247V20.0299L25.5884 18.2137C25.7877 18.0157 25.8999 17.7408 25.8999 17.4608V17.2779C25.8999 16.6914 25.4232 16.2146 24.8367 16.2146H23.7722V13.0224C23.7722 11.2629 22.3407 9.83012 20.5799 9.83012H12.9367C12.4965 11.0649 11.3248 11.9579 9.93994 11.9579H8.87669V19.6793ZM30.1567 14.8575C30.1567 8.56634 25.036 3.44562 18.7448 3.44562H7.81219C6.05273 3.44562 4.61994 4.87841 4.61994 6.63787C4.61994 8.39859 6.05273 9.83012 7.81219 9.83012H9.93994C10.5277 9.83012 11.0044 9.35336 11.0044 8.76562C11.0044 8.17913 10.5277 7.70237 9.93994 7.70237H8.87669V5.57463H9.93994C11.3248 5.57463 12.4965 6.46634 12.9367 7.70237H20.5799C23.5136 7.70237 25.8999 10.0887 25.8999 13.0224V14.2685C27.1385 14.7074 28.0289 15.8905 28.0289 17.2779V17.4608C28.0289 18.3134 27.696 19.1155 27.0931 19.7184L25.8999 20.9116V23.7267C28.5751 21.5699 30.1567 18.3335 30.1567 14.8575ZM25.2769 34.3024H23.7722V50.2624H25.8999V43.8791C25.8999 42.7049 26.8547 41.7501 28.0289 41.7501H30.6915L28.1866 36.1842C27.6733 35.0415 26.5306 34.3024 25.2769 34.3024ZM33.7437 32.5555C33.1396 31.6512 32.1293 31.1101 31.0421 31.1101C30.5994 31.1101 30.1693 31.1984 29.7607 31.3725L27.1032 32.5126C28.4225 32.9982 29.5324 33.9858 30.1289 35.3114L33.0261 41.7501H34.4122C34.8877 41.7501 35.3241 41.9141 35.6798 42.179L39.1621 40.6856L33.7437 32.5555ZM44.1819 48.2166L40.3628 42.4854L37.6738 43.6382L44.3623 53.669C44.8062 52.8984 45.0522 52.0155 45.0522 51.0898C45.0522 50.0644 44.752 49.0692 44.1819 48.2166Z" fill="#07173D"/>
</svg>
