<svg width="24" height="31" viewBox="0 0 24 31" fill="none" xmlns="http://www.w3.org/2000/svg">
<path d="M20.167 9.88132V10.3813H20.667H22.6665C22.7457 10.3814 22.8042 10.405 22.833 10.425V25.3977C22.8041 25.4178 22.7454 25.4414 22.666 25.4414H13.999H13.499V25.9414V29.8956C13.4695 29.9159 13.4108 29.939 13.3325 29.939C13.2542 29.939 13.1955 29.9159 13.166 29.8956V25.9414V25.4414H12.666H11.333H10.833V25.9414V29.8956C10.8035 29.9159 10.7448 29.939 10.6665 29.939C10.5882 29.939 10.5295 29.9159 10.5 29.8956V25.9414V25.4414H10H1.33302C1.25364 25.4414 1.19495 25.4178 1.16602 25.3977V10.425C1.19494 10.405 1.25362 10.3813 1.33302 10.3813H3.33302H3.83302V9.88132V0.888918C3.86194 0.868881 3.92062 0.845215 4.00002 0.845215H20C20.0794 0.845215 20.1381 0.868882 20.167 0.888918V9.88132ZM4.66702 0.84949H4.16707L4.16702 1.34943L4.16602 9.88126L4.16596 10.3813H4.66602H10.666H11.166V9.92288C11.1785 9.91421 11.1984 9.90351 11.2266 9.89473C11.2578 9.88502 11.2942 9.87918 11.333 9.87918H12.667C12.7464 9.87918 12.8051 9.90284 12.834 9.92288V10.3813H13.334H19.334H19.834V9.88132V1.34874V0.848737H19.334H12.667H12.167V1.34874V1.79022C12.1375 1.81047 12.0788 1.83357 12.0005 1.83357C11.9222 1.83357 11.8635 1.81047 11.834 1.79022V1.34949V0.84949H11.334H4.66702ZM22 25.4379H22.5V24.9379V10.8848V10.3848H22H2.00002H1.50002V10.8848V24.9379V25.4379H2.00002H22Z" fill="#07173D" stroke="black"/>
<path d="M8.667 8.37347H9.1675L9.167 7.87297L9.166 6.86945L9.1655 6.36994H8.666H7.333H6.833V6.86994V7.87347V8.37347H7.333H8.667ZM6.667 6.36567H9.333C9.4124 6.36567 9.47108 6.38934 9.5 6.40937V8.33404C9.47119 8.354 9.41276 8.37762 9.33361 8.37774C9.33355 8.37774 9.33349 8.37774 9.33344 8.37774L6.667 8.37774C6.5876 8.37774 6.52892 8.35408 6.5 8.33404V6.40937C6.52892 6.38934 6.5876 6.36567 6.667 6.36567Z" fill="#07173D" stroke="black"/>
<path d="M15.334 6.36919H14.8345L14.834 6.86869L14.833 7.87297L14.8325 8.37347H15.333H16.667H17.167V7.87347V6.86919V6.36919H16.667H15.334ZM17.3336 8.37699C17.3336 8.37699 17.3335 8.37699 17.3334 8.37699L14.667 8.37699C14.5876 8.37699 14.5289 8.35334 14.5 8.33329V6.40937C14.5289 6.38934 14.5876 6.36567 14.667 6.36567H17.333C17.3718 6.36567 17.4083 6.37151 17.4394 6.38122C17.4676 6.39001 17.4875 6.4007 17.5 6.40937V8.33329C17.4712 8.35326 17.4127 8.37687 17.3336 8.37699Z" fill="#07173D" stroke="black"/>
<path d="M4.66603 12.3926H4.16603V12.8926V18.3715C4.13711 18.3916 4.07843 18.4152 3.99903 18.4152C3.91966 18.4152 3.86097 18.3916 3.83203 18.3715V12.4328C3.86095 12.4127 3.91964 12.3891 3.99903 12.3891H11.999H12.0063L12.0136 12.3888C12.0313 12.3883 12.0486 12.389 12.0653 12.3908C12.0486 12.3926 12.0313 12.3933 12.0136 12.3928L12.0063 12.3926H11.999H4.66603Z" fill="#07173D" stroke="black"/>
</svg>
