<svg width="38" height="31" viewBox="0 0 38 31" fill="none" xmlns="http://www.w3.org/2000/svg">
<mask id="path-1-inside-1" fill="white">
<path d="M0.999984 30.3847H37C37.1767 30.3847 37.3462 30.3319 37.4713 30.2379C37.5963 30.1439 37.6667 30.0163 37.667 29.8833V0.773622C37.667 0.640447 37.5967 0.512726 37.4716 0.418557C37.3465 0.324388 37.1769 0.271484 37 0.271484H34.334C34.1571 0.271484 33.9874 0.324388 33.8623 0.418557C33.7373 0.512726 33.667 0.640447 33.667 0.773622V7.2984H25.667V0.773622C25.667 0.640447 25.5967 0.512726 25.4716 0.418557C25.3465 0.324388 25.1769 0.271484 25 0.271484H22.334C22.1571 0.271484 21.9874 0.324388 21.8623 0.418557C21.7373 0.512726 21.667 0.640447 21.667 0.773622V7.2984H13.667V1.77714C13.667 1.64397 13.5967 1.51625 13.4716 1.42208C13.3465 1.32791 13.1769 1.27501 13 1.27501H4.33398V0.773622C4.33398 0.640447 4.26371 0.512726 4.13862 0.418557C4.01354 0.324388 3.84388 0.271484 3.66698 0.271484H0.999984C0.823258 0.271684 0.653861 0.324676 0.528991 0.418823C0.40412 0.512971 0.333984 0.640577 0.333984 0.773622V29.8833C0.334249 30.0162 0.404501 30.1436 0.529343 30.2376C0.654185 30.3316 0.823431 30.3845 0.999984 30.3847ZM35 1.27501H36.333V29.3812H35V1.27501ZM28.333 16.3316H31V17.3359H28.334L28.333 16.3316ZM25.667 15.3281V14.3246H33.667V15.3281H25.667ZM27 16.3316V17.8373C27 17.9704 27.0703 18.0982 27.1953 18.1923C27.3204 18.2865 27.4901 18.3394 27.667 18.3394H31.667C31.8439 18.3394 32.0135 18.2865 32.1386 18.1923C32.2637 18.0982 32.334 17.9704 32.334 17.8373V16.3316H33.667V21.3507H25.667V16.3324L27 16.3316ZM28.333 22.3543H31V23.3585H28.334L28.333 22.3543ZM27 22.3543V23.8599C27 23.9259 27.0172 23.9911 27.0508 24.0521C27.0843 24.113 27.1334 24.1684 27.1953 24.215C27.2573 24.2616 27.3308 24.2986 27.4117 24.3238C27.4927 24.3491 27.5794 24.362 27.667 24.362H31.667C31.7546 24.362 31.8413 24.3491 31.9222 24.3238C32.0032 24.2986 32.0767 24.2616 32.1386 24.215C32.2006 24.1684 32.2497 24.113 32.2832 24.0521C32.3167 23.9911 32.334 23.9259 32.334 23.8599V22.3543H33.667V27.3734H25.667V22.355L27 22.3543ZM33.667 28.3769V29.3812H25.667V28.3776L33.667 28.3769ZM28.334 8.30192H31.001V9.30545H28.334V8.30192ZM27.001 8.30192V9.80758C27.001 9.94076 27.0713 10.0685 27.1963 10.1626C27.3214 10.2568 27.4911 10.3097 27.668 10.3097H31.668C31.8447 10.3095 32.0141 10.2565 32.139 10.1624C32.2638 10.0682 32.334 9.94063 32.334 9.80758V8.30192H33.667V13.321H25.667V8.30192H27.001ZM23.001 1.27576H24.334V29.3812H23L23.001 1.27576ZM6.99998 8.30192H9.66698V9.30545H6.99998V8.30192ZM6.33298 10.3097H10.333C10.5099 10.3097 10.6795 10.2568 10.8046 10.1626C10.9297 10.0685 11 9.94076 11 9.80758V8.30192H12.333V13.321H4.33298V8.30192H5.66698V9.80758C5.66698 9.94076 5.73726 10.0685 5.86234 10.1626C5.98743 10.2568 6.15708 10.3097 6.33398 10.3097H6.33298ZM21.667 14.3246V15.3281H4.33398V14.3246H21.667ZM16.334 22.355H19.001V23.3585H16.334V22.355ZM15.667 24.362H19.667C19.7546 24.362 19.8413 24.3491 19.9222 24.3238C20.0032 24.2986 20.0767 24.2616 20.1386 24.215C20.2006 24.1684 20.2497 24.113 20.2832 24.0521C20.3167 23.9911 20.334 23.9259 20.334 23.8599V22.3543H21.667V27.3734H13.667V22.355H15V23.8607C15.0002 23.9937 15.0706 24.1212 15.1957 24.2152C15.3208 24.3092 15.4903 24.362 15.667 24.362ZM13.667 21.3507V16.3324H15V17.838C15 17.904 15.0172 17.9693 15.0508 18.0302C15.0843 18.0911 15.1334 18.1465 15.1953 18.1931C15.2573 18.2397 15.3308 18.2767 15.4117 18.3019C15.4927 18.3272 15.5794 18.3402 15.667 18.3402H19.667C19.8439 18.3402 20.0135 18.2873 20.1386 18.1931C20.2637 18.0989 20.334 17.9712 20.334 17.838V16.3324H21.667V21.3515L13.667 21.3507ZM16.334 16.3316H19.001V17.3359H16.334V16.3316ZM7.00098 16.3316H9.66698V17.3359H6.99998L7.00098 16.3316ZM5.66698 16.3324V17.838C5.66698 17.9712 5.73726 18.0989 5.86234 18.1931C5.98743 18.2873 6.15708 18.3402 6.33398 18.3402H10.334C10.5109 18.3402 10.6805 18.2873 10.8056 18.1931C10.9307 18.0989 11.001 17.9712 11.001 17.838V16.3324H12.334V21.3515H4.33398V16.3324H5.66698ZM6.99998 22.355H9.66698V23.3585H6.99998V22.355ZM5.66698 22.355V23.8607C5.66698 23.9266 5.68424 23.9919 5.71776 24.0528C5.75128 24.1137 5.80041 24.1691 5.86234 24.2157C5.92428 24.2624 5.99781 24.2993 6.07873 24.3246C6.15966 24.3498 6.24639 24.3628 6.33398 24.3628H10.334C10.4216 24.3628 10.5083 24.3498 10.5892 24.3246C10.6702 24.2993 10.7437 24.2624 10.8056 24.2157C10.8676 24.1691 10.9167 24.1137 10.9502 24.0528C10.9837 23.9919 11.001 23.9266 11.001 23.8607V22.355H12.334V27.3741H4.33398V22.355H5.66698ZM21.667 28.3776V29.3812H4.33398V28.3776H21.667ZM16.334 8.30192H19.001V9.30545H16.334V8.30192ZM15.001 8.30192V9.80758C15.001 9.87353 15.0182 9.93882 15.0518 9.99974C15.0853 10.0607 15.1344 10.116 15.1963 10.1626C15.2583 10.2093 15.3318 10.2463 15.4127 10.2715C15.4937 10.2967 15.5804 10.3097 15.668 10.3097H19.668C19.8447 10.3095 20.0141 10.2565 20.139 10.1624C20.2638 10.0682 20.334 9.94063 20.334 9.80758V8.30192H21.667V13.321H13.667V8.30192H15.001ZM7.00098 2.27928H9.66698V3.2828H6.99998L7.00098 2.27928ZM5.66698 2.27928V3.78494C5.66698 3.91812 5.73726 4.04584 5.86234 4.14001C5.98743 4.23418 6.15708 4.28708 6.33398 4.28708H10.334C10.5107 4.28688 10.6801 4.23389 10.805 4.13974C10.9298 4.04559 11 3.91799 11 3.78494V2.27928H12.333V7.2984H4.33298V2.27928H5.66698ZM1.66698 1.27576H2.99998V29.3812H1.66698V1.27576Z"/>
</mask>
<path d="M0.999984 30.3847H37C37.1767 30.3847 37.3462 30.3319 37.4713 30.2379C37.5963 30.1439 37.6667 30.0163 37.667 29.8833V0.773622C37.667 0.640447 37.5967 0.512726 37.4716 0.418557C37.3465 0.324388 37.1769 0.271484 37 0.271484H34.334C34.1571 0.271484 33.9874 0.324388 33.8623 0.418557C33.7373 0.512726 33.667 0.640447 33.667 0.773622V7.2984H25.667V0.773622C25.667 0.640447 25.5967 0.512726 25.4716 0.418557C25.3465 0.324388 25.1769 0.271484 25 0.271484H22.334C22.1571 0.271484 21.9874 0.324388 21.8623 0.418557C21.7373 0.512726 21.667 0.640447 21.667 0.773622V7.2984H13.667V1.77714C13.667 1.64397 13.5967 1.51625 13.4716 1.42208C13.3465 1.32791 13.1769 1.27501 13 1.27501H4.33398V0.773622C4.33398 0.640447 4.26371 0.512726 4.13862 0.418557C4.01354 0.324388 3.84388 0.271484 3.66698 0.271484H0.999984C0.823258 0.271684 0.653861 0.324676 0.528991 0.418823C0.40412 0.512971 0.333984 0.640577 0.333984 0.773622V29.8833C0.334249 30.0162 0.404501 30.1436 0.529343 30.2376C0.654185 30.3316 0.823431 30.3845 0.999984 30.3847ZM35 1.27501H36.333V29.3812H35V1.27501ZM28.333 16.3316H31V17.3359H28.334L28.333 16.3316ZM25.667 15.3281V14.3246H33.667V15.3281H25.667ZM27 16.3316V17.8373C27 17.9704 27.0703 18.0982 27.1953 18.1923C27.3204 18.2865 27.4901 18.3394 27.667 18.3394H31.667C31.8439 18.3394 32.0135 18.2865 32.1386 18.1923C32.2637 18.0982 32.334 17.9704 32.334 17.8373V16.3316H33.667V21.3507H25.667V16.3324L27 16.3316ZM28.333 22.3543H31V23.3585H28.334L28.333 22.3543ZM27 22.3543V23.8599C27 23.9259 27.0172 23.9911 27.0508 24.0521C27.0843 24.113 27.1334 24.1684 27.1953 24.215C27.2573 24.2616 27.3308 24.2986 27.4117 24.3238C27.4927 24.3491 27.5794 24.362 27.667 24.362H31.667C31.7546 24.362 31.8413 24.3491 31.9222 24.3238C32.0032 24.2986 32.0767 24.2616 32.1386 24.215C32.2006 24.1684 32.2497 24.113 32.2832 24.0521C32.3167 23.9911 32.334 23.9259 32.334 23.8599V22.3543H33.667V27.3734H25.667V22.355L27 22.3543ZM33.667 28.3769V29.3812H25.667V28.3776L33.667 28.3769ZM28.334 8.30192H31.001V9.30545H28.334V8.30192ZM27.001 8.30192V9.80758C27.001 9.94076 27.0713 10.0685 27.1963 10.1626C27.3214 10.2568 27.4911 10.3097 27.668 10.3097H31.668C31.8447 10.3095 32.0141 10.2565 32.139 10.1624C32.2638 10.0682 32.334 9.94063 32.334 9.80758V8.30192H33.667V13.321H25.667V8.30192H27.001ZM23.001 1.27576H24.334V29.3812H23L23.001 1.27576ZM6.99998 8.30192H9.66698V9.30545H6.99998V8.30192ZM6.33298 10.3097H10.333C10.5099 10.3097 10.6795 10.2568 10.8046 10.1626C10.9297 10.0685 11 9.94076 11 9.80758V8.30192H12.333V13.321H4.33298V8.30192H5.66698V9.80758C5.66698 9.94076 5.73726 10.0685 5.86234 10.1626C5.98743 10.2568 6.15708 10.3097 6.33398 10.3097H6.33298ZM21.667 14.3246V15.3281H4.33398V14.3246H21.667ZM16.334 22.355H19.001V23.3585H16.334V22.355ZM15.667 24.362H19.667C19.7546 24.362 19.8413 24.3491 19.9222 24.3238C20.0032 24.2986 20.0767 24.2616 20.1386 24.215C20.2006 24.1684 20.2497 24.113 20.2832 24.0521C20.3167 23.9911 20.334 23.9259 20.334 23.8599V22.3543H21.667V27.3734H13.667V22.355H15V23.8607C15.0002 23.9937 15.0706 24.1212 15.1957 24.2152C15.3208 24.3092 15.4903 24.362 15.667 24.362ZM13.667 21.3507V16.3324H15V17.838C15 17.904 15.0172 17.9693 15.0508 18.0302C15.0843 18.0911 15.1334 18.1465 15.1953 18.1931C15.2573 18.2397 15.3308 18.2767 15.4117 18.3019C15.4927 18.3272 15.5794 18.3402 15.667 18.3402H19.667C19.8439 18.3402 20.0135 18.2873 20.1386 18.1931C20.2637 18.0989 20.334 17.9712 20.334 17.838V16.3324H21.667V21.3515L13.667 21.3507ZM16.334 16.3316H19.001V17.3359H16.334V16.3316ZM7.00098 16.3316H9.66698V17.3359H6.99998L7.00098 16.3316ZM5.66698 16.3324V17.838C5.66698 17.9712 5.73726 18.0989 5.86234 18.1931C5.98743 18.2873 6.15708 18.3402 6.33398 18.3402H10.334C10.5109 18.3402 10.6805 18.2873 10.8056 18.1931C10.9307 18.0989 11.001 17.9712 11.001 17.838V16.3324H12.334V21.3515H4.33398V16.3324H5.66698ZM6.99998 22.355H9.66698V23.3585H6.99998V22.355ZM5.66698 22.355V23.8607C5.66698 23.9266 5.68424 23.9919 5.71776 24.0528C5.75128 24.1137 5.80041 24.1691 5.86234 24.2157C5.92428 24.2624 5.99781 24.2993 6.07873 24.3246C6.15966 24.3498 6.24639 24.3628 6.33398 24.3628H10.334C10.4216 24.3628 10.5083 24.3498 10.5892 24.3246C10.6702 24.2993 10.7437 24.2624 10.8056 24.2157C10.8676 24.1691 10.9167 24.1137 10.9502 24.0528C10.9837 23.9919 11.001 23.9266 11.001 23.8607V22.355H12.334V27.3741H4.33398V22.355H5.66698ZM21.667 28.3776V29.3812H4.33398V28.3776H21.667ZM16.334 8.30192H19.001V9.30545H16.334V8.30192ZM15.001 8.30192V9.80758C15.001 9.87353 15.0182 9.93882 15.0518 9.99974C15.0853 10.0607 15.1344 10.116 15.1963 10.1626C15.2583 10.2093 15.3318 10.2463 15.4127 10.2715C15.4937 10.2967 15.5804 10.3097 15.668 10.3097H19.668C19.8447 10.3095 20.0141 10.2565 20.139 10.1624C20.2638 10.0682 20.334 9.94063 20.334 9.80758V8.30192H21.667V13.321H13.667V8.30192H15.001ZM7.00098 2.27928H9.66698V3.2828H6.99998L7.00098 2.27928ZM5.66698 2.27928V3.78494C5.66698 3.91812 5.73726 4.04584 5.86234 4.14001C5.98743 4.23418 6.15708 4.28708 6.33398 4.28708H10.334C10.5107 4.28688 10.6801 4.23389 10.805 4.13974C10.9298 4.04559 11 3.91799 11 3.78494V2.27928H12.333V7.2984H4.33298V2.27928H5.66698ZM1.66698 1.27576H2.99998V29.3812H1.66698V1.27576Z" fill="#07173D" stroke="black" stroke-width="2" mask="url(#path-1-inside-1)"/>
</svg>
