<svg width="143" height="143" viewBox="0 0 143 143" fill="none" xmlns="http://www.w3.org/2000/svg">
<path d="M57.043 103.391L99.826 71.3L57.043 39.217V103.391ZM71.3 0C57.1982 0 43.4131 4.18167 31.6879 12.0162C19.9627 19.8508 10.8239 30.9863 5.42742 44.0147C0.0308933 57.043 -1.38108 71.3791 1.37004 85.2099C4.12117 99.0408 10.9118 111.745 20.8833 121.717C30.8548 131.688 43.5592 138.479 57.3901 141.23C71.2209 143.981 85.557 142.569 98.5854 137.173C111.614 131.776 122.749 122.637 130.584 110.912C138.418 99.1869 142.6 85.4018 142.6 71.3C142.592 52.3925 135.078 34.2617 121.708 20.8921C108.338 7.52245 90.2075 0.00795045 71.3 0ZM71.3 128.347C60.0183 128.346 48.9902 125 39.6101 118.732C30.2301 112.464 22.9194 103.555 18.6024 93.1316C14.2855 82.7085 13.1561 71.2394 15.3573 60.1745C17.5584 49.1096 22.9912 38.9459 30.9685 30.9685C38.9459 22.9911 49.1096 17.5584 60.1745 15.3573C71.2394 13.1561 82.7085 14.2854 93.1316 18.6024C103.555 22.9193 112.464 30.2301 118.732 39.6101C125 48.9902 128.346 60.0183 128.347 71.3C128.328 86.424 122.312 100.923 111.617 111.617C100.923 122.312 86.424 128.328 71.3 128.347Z" fill="white"/>
</svg>
