<svg width="53" height="54" viewBox="0 0 53 54" fill="none" xmlns="http://www.w3.org/2000/svg">
<mask id="path-1-inside-1" fill="white">
<path d="M36.5503 16.9601C36.3605 16.9603 36.1785 17.0359 36.0443 17.1701L23.5643 29.6491L16.3823 22.4671C16.2454 22.3376 16.0642 22.2655 15.8758 22.2655C15.6874 22.2655 15.5061 22.3376 15.3693 22.4671L12.4693 25.3671C12.3351 25.5015 12.2598 25.6837 12.2598 25.8736C12.2598 26.0635 12.3351 26.2457 12.4693 26.3801L23.0593 36.9591C23.1258 37.0256 23.2047 37.0784 23.2916 37.1144C23.3785 37.1505 23.4717 37.169 23.5658 37.169C23.6599 37.169 23.753 37.1505 23.8399 37.1144C23.9268 37.0784 24.0058 37.0256 24.0723 36.9591L39.9523 21.0781C40.0864 20.9437 40.1618 20.7615 40.1618 20.5716C40.1618 20.3817 40.0864 20.1995 39.9523 20.0651L37.0523 17.1651C36.9181 17.0309 36.7361 16.9553 36.5463 16.9551L36.5503 16.9601ZM23.5643 35.4391L13.9943 25.8681L15.8773 23.9851L23.0583 31.1681C23.1248 31.2346 23.2037 31.2874 23.2906 31.3234C23.3775 31.3595 23.4707 31.378 23.5648 31.378C23.6589 31.378 23.752 31.3595 23.8389 31.3234C23.9258 31.2874 24.0048 31.2346 24.0713 31.1681L36.5503 18.6891L38.4333 20.5721L23.5643 35.4391Z"/>
</mask>
<path d="M36.5503 16.9601C36.3605 16.9603 36.1785 17.0359 36.0443 17.1701L23.5643 29.6491L16.3823 22.4671C16.2454 22.3376 16.0642 22.2655 15.8758 22.2655C15.6874 22.2655 15.5061 22.3376 15.3693 22.4671L12.4693 25.3671C12.3351 25.5015 12.2598 25.6837 12.2598 25.8736C12.2598 26.0635 12.3351 26.2457 12.4693 26.3801L23.0593 36.9591C23.1258 37.0256 23.2047 37.0784 23.2916 37.1144C23.3785 37.1505 23.4717 37.169 23.5658 37.169C23.6599 37.169 23.753 37.1505 23.8399 37.1144C23.9268 37.0784 24.0058 37.0256 24.0723 36.9591L39.9523 21.0781C40.0864 20.9437 40.1618 20.7615 40.1618 20.5716C40.1618 20.3817 40.0864 20.1995 39.9523 20.0651L37.0523 17.1651C36.9181 17.0309 36.7361 16.9553 36.5463 16.9551L36.5503 16.9601ZM23.5643 35.4391L13.9943 25.8681L15.8773 23.9851L23.0583 31.1681C23.1248 31.2346 23.2037 31.2874 23.2906 31.3234C23.3775 31.3595 23.4707 31.378 23.5648 31.378C23.6589 31.378 23.752 31.3595 23.8389 31.3234C23.9258 31.2874 24.0048 31.2346 24.0713 31.1681L36.5503 18.6891L38.4333 20.5721L23.5643 35.4391Z" fill="black"/>
<path d="M36.5503 16.9601L36.5517 17.9601L38.6281 17.9572L37.3313 16.3355L36.5503 16.9601ZM36.0443 17.1701L36.7514 17.8772L36.7514 17.8772L36.0443 17.1701ZM23.5643 29.6491L22.8572 30.3562L23.5642 31.0633L24.2714 30.3562L23.5643 29.6491ZM16.3823 22.4671L17.0894 21.76L17.0796 21.7502L17.0695 21.7407L16.3823 22.4671ZM15.8758 22.2655V21.2655V22.2655ZM15.3693 22.4671L14.682 21.7407L14.672 21.7502L14.6622 21.76L15.3693 22.4671ZM12.4693 25.3671L11.7622 24.66L11.7615 24.6607L12.4693 25.3671ZM12.2598 25.8736H13.2598H12.2598ZM12.4693 26.3801L11.7615 27.0865L11.7625 27.0876L12.4693 26.3801ZM23.0593 36.9591L23.7667 36.2523L23.766 36.2516L23.0593 36.9591ZM24.0723 36.9591L23.3651 36.252L23.3649 36.2523L24.0723 36.9591ZM39.9523 21.0781L40.6594 21.7852L40.6601 21.7845L39.9523 21.0781ZM39.9523 20.0651L40.6601 19.3587L40.6594 19.358L39.9523 20.0651ZM37.0523 17.1651L37.7594 16.458L37.7594 16.458L37.0523 17.1651ZM36.5463 16.9551L36.5477 15.9551L34.4638 15.9522L35.7653 17.5796L36.5463 16.9551ZM23.5643 35.4391L22.8571 36.1461L23.5642 36.8533L24.2713 36.1462L23.5643 35.4391ZM13.9943 25.8681L13.2872 25.161L12.5801 25.868L13.2871 26.5751L13.9943 25.8681ZM15.8773 23.9851L16.5845 23.2781L15.8774 22.5708L15.1702 23.278L15.8773 23.9851ZM23.0583 31.1681L23.7657 30.4613L23.7655 30.4611L23.0583 31.1681ZM23.5648 31.378V32.378V31.378ZM24.0713 31.1681L23.3642 30.461L23.3639 30.4613L24.0713 31.1681ZM36.5503 18.6891L37.2574 17.982L36.5503 17.2749L35.8432 17.982L36.5503 18.6891ZM38.4333 20.5721L39.1403 21.2792L39.8475 20.5721L39.1404 19.865L38.4333 20.5721ZM36.5489 15.9601C36.0943 15.9607 35.6586 16.1416 35.3372 16.463L36.7514 17.8772C36.6984 17.9302 36.6266 17.96 36.5517 17.9601L36.5489 15.9601ZM35.3372 16.4629L22.8572 28.9419L24.2714 30.3562L36.7514 17.8772L35.3372 16.4629ZM24.2714 28.942L17.0894 21.76L15.6752 23.1742L22.8572 30.3562L24.2714 28.942ZM17.0695 21.7407C16.747 21.4355 16.3198 21.2655 15.8758 21.2655V23.2655C15.8085 23.2655 15.7439 23.2397 15.695 23.1935L17.0695 21.7407ZM15.8758 21.2655C15.4318 21.2655 15.0046 21.4355 14.682 21.7407L16.0565 23.1935C16.0077 23.2397 15.943 23.2655 15.8758 23.2655V21.2655ZM14.6622 21.76L11.7622 24.66L13.1764 26.0742L16.0764 23.1742L14.6622 21.76ZM11.7615 24.6607C11.4402 24.9826 11.2598 25.4188 11.2598 25.8736H13.2598C13.2598 25.9485 13.23 26.0204 13.1771 26.0735L11.7615 24.6607ZM11.2598 25.8736C11.2598 26.3284 11.4402 26.7646 11.7615 27.0865L13.1771 25.6737C13.23 25.7267 13.2598 25.7986 13.2598 25.8736H11.2598ZM11.7625 27.0876L22.3525 37.6665L23.766 36.2516L13.176 25.6726L11.7625 27.0876ZM22.3519 37.6659C22.5112 37.8254 22.7005 37.9519 22.9088 38.0382L23.6745 36.1906C23.709 36.2049 23.7403 36.2259 23.7667 36.2523L22.3519 37.6659ZM22.9088 38.0382C23.117 38.1246 23.3403 38.169 23.5658 38.169V36.169C23.6031 36.169 23.6401 36.1764 23.6745 36.1906L22.9088 38.0382ZM23.5658 38.169C23.7913 38.169 24.0145 38.1246 24.2228 38.0382L23.457 36.1906C23.4915 36.1764 23.5284 36.169 23.5658 36.169V38.169ZM24.2228 38.0382C24.4311 37.9519 24.6203 37.8254 24.7797 37.6659L23.3649 36.2523C23.3912 36.2259 23.4226 36.2049 23.457 36.1906L24.2228 38.0382ZM24.7794 37.6662L40.6594 21.7852L39.2451 20.371L23.3651 36.252L24.7794 37.6662ZM40.6601 21.7845C40.9813 21.4626 41.1618 21.0264 41.1618 20.5716H39.1618C39.1618 20.4966 39.1915 20.4247 39.2445 20.3717L40.6601 21.7845ZM41.1618 20.5716C41.1618 20.1168 40.9813 19.6806 40.6601 19.3587L39.2445 20.7715C39.1915 20.7184 39.1618 20.6465 39.1618 20.5716H41.1618ZM40.6594 19.358L37.7594 16.458L36.3452 17.8722L39.2452 20.7722L40.6594 19.358ZM37.7594 16.458C37.438 16.1366 37.0022 15.9557 36.5477 15.9551L36.5449 17.9551C36.47 17.955 36.3982 17.9252 36.3452 17.8722L37.7594 16.458ZM35.7653 17.5796L35.7693 17.5846L37.3313 16.3355L37.3273 16.3305L35.7653 17.5796ZM24.2714 34.732L14.7014 25.161L13.2871 26.5751L22.8571 36.1461L24.2714 34.732ZM14.7014 26.5752L16.5844 24.6922L15.1702 23.278L13.2872 25.161L14.7014 26.5752ZM15.1701 24.6921L22.3511 31.8751L23.7655 30.4611L16.5845 23.2781L15.1701 24.6921ZM22.3509 31.8749C22.5102 32.0344 22.6995 32.1609 22.9078 32.2472L23.6735 30.3996C23.708 30.4139 23.7393 30.4349 23.7657 30.4613L22.3509 31.8749ZM22.9078 32.2472C23.116 32.3336 23.3393 32.378 23.5648 32.378V30.378C23.6021 30.378 23.639 30.3854 23.6735 30.3996L22.9078 32.2472ZM23.5648 32.378C23.7902 32.378 24.0135 32.3336 24.2218 32.2472L23.456 30.3996C23.4905 30.3854 23.5275 30.378 23.5648 30.378V32.378ZM24.2218 32.2472C24.4301 32.1609 24.6193 32.0344 24.7787 31.8749L23.3639 30.4613C23.3903 30.4349 23.4216 30.4139 23.456 30.3996L24.2218 32.2472ZM24.7784 31.8752L37.2574 19.3962L35.8432 17.982L23.3642 30.461L24.7784 31.8752ZM35.8432 19.3962L37.7262 21.2792L39.1404 19.865L37.2574 17.982L35.8432 19.3962ZM37.7262 19.8649L22.8572 34.7319L24.2713 36.1462L39.1403 21.2792L37.7262 19.8649Z" fill="black" mask="url(#path-1-inside-1)"/>
<path d="M15.8865 42.5155C18.8043 44.465 22.2113 45.5467 25.7124 45.6407V45.6494L26.2124 45.6494C31.1411 45.6491 35.8678 43.6911 39.353 40.2059C42.8381 36.7208 44.7961 31.9941 44.7964 27.0654C44.797 23.3895 43.7075 19.7959 41.6657 16.7392C39.6238 13.6825 36.7214 11.2999 33.3254 9.89285C29.9295 8.48575 26.1925 8.11733 22.5871 8.83417C18.9818 9.55101 15.6699 11.3209 13.0705 13.9201C10.4711 16.5192 8.70081 19.8308 7.98357 23.4361C7.26633 27.0414 7.63435 30.7784 9.04107 34.1745C10.4478 37.5707 12.83 40.4734 15.8865 42.5155ZM15.6462 11.252C18.7739 9.16239 22.4509 8.04717 26.2123 8.04736C31.2561 8.04762 36.0931 10.0514 39.6595 13.618C43.2258 17.1845 45.2294 22.0216 45.2294 27.0654C45.2294 30.8268 44.114 34.5038 42.0242 37.6313C39.9344 40.7588 36.9642 43.1964 33.489 44.6358C30.0139 46.0752 26.1899 46.4518 22.5008 45.7179C18.8116 44.984 15.4229 43.1726 12.7633 40.5128C10.1036 37.853 8.29238 34.4642 7.55867 30.775C6.82497 27.0858 7.20173 23.2619 8.64131 19.7868C10.0809 16.3117 12.5186 13.3416 15.6462 11.252Z" fill="black" stroke="black"/>
<mask id="path-4-inside-2" fill="white">
<path d="M51.6067 29.3601C52.1338 28.7095 52.4214 27.8975 52.4214 27.0601C52.4214 26.2228 52.1338 25.4108 51.6067 24.7601L50.4327 23.2941C50.2081 23.0127 50.0545 22.6813 49.9849 22.328C49.9153 21.9747 49.9317 21.6098 50.0327 21.2641L50.5567 19.4641C50.7868 18.6602 50.7378 17.802 50.4176 17.0295C50.0974 16.2569 49.525 15.6156 48.7937 15.2101L47.1527 14.3101C46.8365 14.1371 46.5667 13.8904 46.366 13.591C46.1653 13.2916 46.0397 12.9483 45.9997 12.5901L45.7997 10.7251C45.712 9.89291 45.3413 9.11599 44.7496 8.52425C44.1578 7.93252 43.3809 7.56183 42.5487 7.47414L40.6837 7.27414C40.3255 7.2344 39.9822 7.10896 39.6828 6.90843C39.3834 6.70791 39.1368 6.4382 38.9637 6.12214L38.0637 4.48114C37.6639 3.74373 37.0226 3.16631 36.2475 2.84583C35.4723 2.52535 34.6105 2.48132 33.8067 2.72114L32.0067 3.24414C31.6609 3.34508 31.2959 3.36143 30.9424 3.29182C30.5889 3.22221 30.2574 3.06867 29.9757 2.84414L28.5067 1.66714C27.8559 1.14041 27.044 0.853027 26.2067 0.853027C25.3694 0.853027 24.5575 1.14041 23.9067 1.66714L22.4477 2.84114C22.1659 3.06521 21.8345 3.21847 21.4813 3.28807C21.1281 3.35767 20.7634 3.34157 20.4177 3.24114L18.6177 2.71714C17.8137 2.48703 16.9555 2.53606 16.183 2.85622C15.4105 3.17638 14.7692 3.74879 14.3637 4.48014L13.4637 6.12114C13.2906 6.43728 13.0439 6.7071 12.7446 6.90779C12.4452 7.10848 12.1019 7.23413 11.7437 7.27414L9.87868 7.47414C9.04556 7.56233 8.26804 7.93412 7.67638 8.52725C7.08471 9.12037 6.71482 9.8988 6.62868 10.7321L6.42868 12.5971C6.38895 12.9553 6.26351 13.2986 6.06298 13.598C5.86245 13.8974 5.59274 14.1441 5.27668 14.3171L3.63568 15.2171C2.8985 15.6165 2.321 16.2571 2.00002 17.0316C1.67904 17.8061 1.63408 18.6674 1.87268 19.4711L2.39768 21.2711C2.49862 21.617 2.51498 21.982 2.44536 22.3354C2.37575 22.6889 2.22221 23.0204 1.99768 23.3021L0.814684 24.7661C0.287605 25.4168 0 26.2288 0 27.0661C0 27.9035 0.287605 28.7155 0.814684 29.3661L1.98868 30.8321C2.21328 31.1136 2.36687 31.445 2.43648 31.7983C2.5061 32.1516 2.48971 32.5165 2.38868 32.8621L1.86468 34.6621C1.63449 35.466 1.68337 36.3241 2.00334 37.0966C2.32332 37.8691 2.89552 38.5105 3.62668 38.9161L5.26768 39.8161C5.58382 39.9892 5.85364 40.2359 6.05433 40.5353C6.25502 40.8346 6.38068 41.1779 6.42068 41.5361L6.62068 43.4011C6.70837 44.2334 7.07907 45.0103 7.6708 45.602C8.26254 46.1938 9.03945 46.5644 9.87168 46.6521L11.7367 46.8521C12.0948 46.8919 12.4381 47.0173 12.7375 47.2178C13.0369 47.4184 13.2836 47.6881 13.4567 48.0041L14.3567 49.6451C14.7559 50.3825 15.3965 50.9601 16.171 51.2811C16.9456 51.6021 17.807 51.6469 18.6107 51.4081L20.4107 50.8831C20.7565 50.7825 21.1215 50.7664 21.4749 50.836C21.8283 50.9056 22.1598 51.0589 22.4417 51.2831L23.9127 52.4601C24.5634 52.9872 25.3753 53.2748 26.2127 53.2748C27.0501 53.2748 27.862 52.9872 28.5127 52.4601L29.9787 51.2861C30.2602 51.0616 30.5916 50.9081 30.9449 50.8385C31.2982 50.7688 31.663 50.7852 32.0087 50.8861L33.8087 51.4101C34.6124 51.6487 35.4737 51.6038 36.2482 51.2828C37.0227 50.9618 37.6634 50.3843 38.0627 49.6471L38.9627 48.0061C39.1358 47.69 39.3824 47.4202 39.6818 47.2195C39.9812 47.0188 40.3245 46.8931 40.6827 46.8531L42.5477 46.6531C43.3799 46.5654 44.1568 46.1948 44.7486 45.603C45.3403 45.0113 45.711 44.2344 45.7987 43.4021L45.9987 41.5371C46.0384 41.179 46.1639 40.8357 46.3644 40.5363C46.5649 40.2369 46.8346 39.9902 47.1507 39.8171L48.7917 38.9171C49.5297 38.5179 50.1078 37.8768 50.429 37.1016C50.7503 36.3265 50.795 35.4644 50.5557 34.6601L50.0317 32.8601C49.9307 32.5143 49.9144 32.1493 49.984 31.7959C50.0536 31.4424 50.2072 31.1109 50.4317 30.8291L51.6067 29.3601ZM49.3137 29.9301C48.9449 30.3913 48.6924 30.9344 48.5775 31.5136C48.4627 32.0928 48.4888 32.6911 48.6537 33.2581L49.1787 35.0581C49.3254 35.5492 49.2985 36.0757 49.1025 36.5493C48.9066 37.0228 48.5535 37.4144 48.1027 37.6581L46.4617 38.5581C45.9433 38.8422 45.5011 39.2469 45.1725 39.7382C44.8438 40.2294 44.6384 40.7926 44.5737 41.3801L44.3737 43.2451C44.3198 43.7529 44.0935 44.2268 43.7324 44.5879C43.3714 44.9489 42.8974 45.1753 42.3897 45.2291L40.5247 45.4291C39.9374 45.4942 39.3745 45.6997 38.8834 46.0283C38.3924 46.357 37.9877 46.799 37.7037 47.3171L36.8037 48.9581C36.5597 49.4087 36.168 49.7615 35.6946 49.9575C35.2212 50.1534 34.6947 50.1805 34.2037 50.0341L32.4037 49.5091C31.8367 49.344 31.2383 49.3177 30.6591 49.4326C30.0798 49.5475 29.5367 49.8001 29.0757 50.1691L27.6097 51.3431C27.2127 51.6645 26.7174 51.8398 26.2067 51.8398C25.6959 51.8398 25.2007 51.6645 24.8037 51.3431L23.3377 50.1691C22.8766 49.8003 22.3335 49.5477 21.7543 49.4328C21.175 49.318 20.5767 49.3441 20.0097 49.5091L18.2097 50.0341C17.7186 50.1803 17.1923 50.1531 16.7189 49.9572C16.2455 49.7613 15.8539 49.4085 15.6097 48.9581L14.7097 47.3171C14.4257 46.7988 14.0209 46.3566 13.5297 46.0279C13.0384 45.6993 12.4752 45.4939 11.8877 45.4291L10.0227 45.2291C9.51493 45.1753 9.04101 44.9489 8.67996 44.5879C8.31891 44.2268 8.09257 43.7529 8.03868 43.2451L7.83868 41.3801C7.77364 40.7929 7.56811 40.2299 7.23948 39.7389C6.91085 39.2478 6.46878 38.8432 5.95068 38.5591L4.30968 37.6591C3.86241 37.4117 3.51239 37.0197 3.31691 36.5473C3.12144 36.075 3.0921 35.5503 3.23368 35.0591L3.75868 33.2591C3.92376 32.6922 3.94997 32.0938 3.8351 31.5145C3.72022 30.9353 3.46764 30.3922 3.09868 29.9311L1.93168 28.4681C1.61053 28.0711 1.43532 27.5758 1.43532 27.0651C1.43532 26.5544 1.61053 26.0592 1.93168 25.6621L3.10668 24.1961C3.47549 23.735 3.72798 23.1919 3.84285 22.6127C3.95772 22.0335 3.93159 21.4351 3.76668 20.8681L3.24268 19.0681C3.09597 18.5771 3.12286 18.0505 3.31883 17.577C3.5148 17.1035 3.86789 16.7119 4.31868 16.4681L5.95968 15.5681C6.47681 15.2848 6.91819 14.8812 7.24661 14.3914C7.57502 13.9017 7.78084 13.3401 7.84668 12.7541L8.04668 10.8891C8.1009 10.3811 8.32777 9.90706 8.68941 9.54615C9.05104 9.18525 9.52555 8.95933 10.0337 8.90614L11.8987 8.70614C12.486 8.6411 13.0489 8.43557 13.5399 8.10694C14.031 7.7783 14.4356 7.33624 14.7197 6.81814L15.6197 5.17714C15.8669 4.7316 16.2576 4.38274 16.7281 4.18722C17.1987 3.9917 17.7215 3.96101 18.2117 4.10014L20.0117 4.62514C20.5787 4.7903 21.1771 4.81655 21.7563 4.70168C22.3356 4.5868 22.8787 4.33417 23.3397 3.96514L24.8067 2.78514C25.2037 2.46381 25.6989 2.28848 26.2097 2.28848C26.7204 2.28848 27.2157 2.46381 27.6127 2.78514L29.0807 3.96014C29.542 4.32872 30.085 4.58107 30.6642 4.69593C31.2434 4.81079 31.8417 4.7848 32.4087 4.62014L34.2087 4.09614C34.6997 3.95001 35.2261 3.97717 35.6995 4.17309C36.1729 4.369 36.5645 4.72174 36.8087 5.17214L37.7087 6.81314C37.9921 7.33039 38.3959 7.77186 38.8858 8.10028C39.3758 8.4287 39.9375 8.63444 40.5237 8.70014L42.3887 8.90014C42.8964 8.95402 43.3704 9.18036 43.7314 9.54141C44.0925 9.90246 44.3188 10.3764 44.3727 10.8841L44.5727 12.7491C44.6377 13.3364 44.8433 13.8994 45.1719 14.3904C45.5005 14.8814 45.9426 15.2861 46.4607 15.5701L48.1017 16.4701C48.549 16.7176 48.899 17.1096 49.0945 17.5819C49.2899 18.0543 49.3193 18.579 49.1777 19.0701L48.6527 20.8701C48.4876 21.4371 48.4614 22.0355 48.5763 22.6147C48.6911 23.194 48.9437 23.7371 49.3127 24.1981L50.4917 25.6601C50.8128 26.0572 50.988 26.5524 50.988 27.0631C50.988 27.5738 50.8128 28.0691 50.4917 28.4661L49.3137 29.9301Z"/>
</mask>
<path d="M51.6067 29.3601C52.1338 28.7095 52.4214 27.8975 52.4214 27.0601C52.4214 26.2228 52.1338 25.4108 51.6067 24.7601L50.4327 23.2941C50.2081 23.0127 50.0545 22.6813 49.9849 22.328C49.9153 21.9747 49.9317 21.6098 50.0327 21.2641L50.5567 19.4641C50.7868 18.6602 50.7378 17.802 50.4176 17.0295C50.0974 16.2569 49.525 15.6156 48.7937 15.2101L47.1527 14.3101C46.8365 14.1371 46.5667 13.8904 46.366 13.591C46.1653 13.2916 46.0397 12.9483 45.9997 12.5901L45.7997 10.7251C45.712 9.89291 45.3413 9.11599 44.7496 8.52425C44.1578 7.93252 43.3809 7.56183 42.5487 7.47414L40.6837 7.27414C40.3255 7.2344 39.9822 7.10896 39.6828 6.90843C39.3834 6.70791 39.1368 6.4382 38.9637 6.12214L38.0637 4.48114C37.6639 3.74373 37.0226 3.16631 36.2475 2.84583C35.4723 2.52535 34.6105 2.48132 33.8067 2.72114L32.0067 3.24414C31.6609 3.34508 31.2959 3.36143 30.9424 3.29182C30.5889 3.22221 30.2574 3.06867 29.9757 2.84414L28.5067 1.66714C27.8559 1.14041 27.044 0.853027 26.2067 0.853027C25.3694 0.853027 24.5575 1.14041 23.9067 1.66714L22.4477 2.84114C22.1659 3.06521 21.8345 3.21847 21.4813 3.28807C21.1281 3.35767 20.7634 3.34157 20.4177 3.24114L18.6177 2.71714C17.8137 2.48703 16.9555 2.53606 16.183 2.85622C15.4105 3.17638 14.7692 3.74879 14.3637 4.48014L13.4637 6.12114C13.2906 6.43728 13.0439 6.7071 12.7446 6.90779C12.4452 7.10848 12.1019 7.23413 11.7437 7.27414L9.87868 7.47414C9.04556 7.56233 8.26804 7.93412 7.67638 8.52725C7.08471 9.12037 6.71482 9.8988 6.62868 10.7321L6.42868 12.5971C6.38895 12.9553 6.26351 13.2986 6.06298 13.598C5.86245 13.8974 5.59274 14.1441 5.27668 14.3171L3.63568 15.2171C2.8985 15.6165 2.321 16.2571 2.00002 17.0316C1.67904 17.8061 1.63408 18.6674 1.87268 19.4711L2.39768 21.2711C2.49862 21.617 2.51498 21.982 2.44536 22.3354C2.37575 22.6889 2.22221 23.0204 1.99768 23.3021L0.814684 24.7661C0.287605 25.4168 0 26.2288 0 27.0661C0 27.9035 0.287605 28.7155 0.814684 29.3661L1.98868 30.8321C2.21328 31.1136 2.36687 31.445 2.43648 31.7983C2.5061 32.1516 2.48971 32.5165 2.38868 32.8621L1.86468 34.6621C1.63449 35.466 1.68337 36.3241 2.00334 37.0966C2.32332 37.8691 2.89552 38.5105 3.62668 38.9161L5.26768 39.8161C5.58382 39.9892 5.85364 40.2359 6.05433 40.5353C6.25502 40.8346 6.38068 41.1779 6.42068 41.5361L6.62068 43.4011C6.70837 44.2334 7.07907 45.0103 7.6708 45.602C8.26254 46.1938 9.03945 46.5644 9.87168 46.6521L11.7367 46.8521C12.0948 46.8919 12.4381 47.0173 12.7375 47.2178C13.0369 47.4184 13.2836 47.6881 13.4567 48.0041L14.3567 49.6451C14.7559 50.3825 15.3965 50.9601 16.171 51.2811C16.9456 51.6021 17.807 51.6469 18.6107 51.4081L20.4107 50.8831C20.7565 50.7825 21.1215 50.7664 21.4749 50.836C21.8283 50.9056 22.1598 51.0589 22.4417 51.2831L23.9127 52.4601C24.5634 52.9872 25.3753 53.2748 26.2127 53.2748C27.0501 53.2748 27.862 52.9872 28.5127 52.4601L29.9787 51.2861C30.2602 51.0616 30.5916 50.9081 30.9449 50.8385C31.2982 50.7688 31.663 50.7852 32.0087 50.8861L33.8087 51.4101C34.6124 51.6487 35.4737 51.6038 36.2482 51.2828C37.0227 50.9618 37.6634 50.3843 38.0627 49.6471L38.9627 48.0061C39.1358 47.69 39.3824 47.4202 39.6818 47.2195C39.9812 47.0188 40.3245 46.8931 40.6827 46.8531L42.5477 46.6531C43.3799 46.5654 44.1568 46.1948 44.7486 45.603C45.3403 45.0113 45.711 44.2344 45.7987 43.4021L45.9987 41.5371C46.0384 41.179 46.1639 40.8357 46.3644 40.5363C46.5649 40.2369 46.8346 39.9902 47.1507 39.8171L48.7917 38.9171C49.5297 38.5179 50.1078 37.8768 50.429 37.1016C50.7503 36.3265 50.795 35.4644 50.5557 34.6601L50.0317 32.8601C49.9307 32.5143 49.9144 32.1493 49.984 31.7959C50.0536 31.4424 50.2072 31.1109 50.4317 30.8291L51.6067 29.3601ZM49.3137 29.9301C48.9449 30.3913 48.6924 30.9344 48.5775 31.5136C48.4627 32.0928 48.4888 32.6911 48.6537 33.2581L49.1787 35.0581C49.3254 35.5492 49.2985 36.0757 49.1025 36.5493C48.9066 37.0228 48.5535 37.4144 48.1027 37.6581L46.4617 38.5581C45.9433 38.8422 45.5011 39.2469 45.1725 39.7382C44.8438 40.2294 44.6384 40.7926 44.5737 41.3801L44.3737 43.2451C44.3198 43.7529 44.0935 44.2268 43.7324 44.5879C43.3714 44.9489 42.8974 45.1753 42.3897 45.2291L40.5247 45.4291C39.9374 45.4942 39.3745 45.6997 38.8834 46.0283C38.3924 46.357 37.9877 46.799 37.7037 47.3171L36.8037 48.9581C36.5597 49.4087 36.168 49.7615 35.6946 49.9575C35.2212 50.1534 34.6947 50.1805 34.2037 50.0341L32.4037 49.5091C31.8367 49.344 31.2383 49.3177 30.6591 49.4326C30.0798 49.5475 29.5367 49.8001 29.0757 50.1691L27.6097 51.3431C27.2127 51.6645 26.7174 51.8398 26.2067 51.8398C25.6959 51.8398 25.2007 51.6645 24.8037 51.3431L23.3377 50.1691C22.8766 49.8003 22.3335 49.5477 21.7543 49.4328C21.175 49.318 20.5767 49.3441 20.0097 49.5091L18.2097 50.0341C17.7186 50.1803 17.1923 50.1531 16.7189 49.9572C16.2455 49.7613 15.8539 49.4085 15.6097 48.9581L14.7097 47.3171C14.4257 46.7988 14.0209 46.3566 13.5297 46.0279C13.0384 45.6993 12.4752 45.4939 11.8877 45.4291L10.0227 45.2291C9.51493 45.1753 9.04101 44.9489 8.67996 44.5879C8.31891 44.2268 8.09257 43.7529 8.03868 43.2451L7.83868 41.3801C7.77364 40.7929 7.56811 40.2299 7.23948 39.7389C6.91085 39.2478 6.46878 38.8432 5.95068 38.5591L4.30968 37.6591C3.86241 37.4117 3.51239 37.0197 3.31691 36.5473C3.12144 36.075 3.0921 35.5503 3.23368 35.0591L3.75868 33.2591C3.92376 32.6922 3.94997 32.0938 3.8351 31.5145C3.72022 30.9353 3.46764 30.3922 3.09868 29.9311L1.93168 28.4681C1.61053 28.0711 1.43532 27.5758 1.43532 27.0651C1.43532 26.5544 1.61053 26.0592 1.93168 25.6621L3.10668 24.1961C3.47549 23.735 3.72798 23.1919 3.84285 22.6127C3.95772 22.0335 3.93159 21.4351 3.76668 20.8681L3.24268 19.0681C3.09597 18.5771 3.12286 18.0505 3.31883 17.577C3.5148 17.1035 3.86789 16.7119 4.31868 16.4681L5.95968 15.5681C6.47681 15.2848 6.91819 14.8812 7.24661 14.3914C7.57502 13.9017 7.78084 13.3401 7.84668 12.7541L8.04668 10.8891C8.1009 10.3811 8.32777 9.90706 8.68941 9.54615C9.05104 9.18525 9.52555 8.95933 10.0337 8.90614L11.8987 8.70614C12.486 8.6411 13.0489 8.43557 13.5399 8.10694C14.031 7.7783 14.4356 7.33624 14.7197 6.81814L15.6197 5.17714C15.8669 4.7316 16.2576 4.38274 16.7281 4.18722C17.1987 3.9917 17.7215 3.96101 18.2117 4.10014L20.0117 4.62514C20.5787 4.7903 21.1771 4.81655 21.7563 4.70168C22.3356 4.5868 22.8787 4.33417 23.3397 3.96514L24.8067 2.78514C25.2037 2.46381 25.6989 2.28848 26.2097 2.28848C26.7204 2.28848 27.2157 2.46381 27.6127 2.78514L29.0807 3.96014C29.542 4.32872 30.085 4.58107 30.6642 4.69593C31.2434 4.81079 31.8417 4.7848 32.4087 4.62014L34.2087 4.09614C34.6997 3.95001 35.2261 3.97717 35.6995 4.17309C36.1729 4.369 36.5645 4.72174 36.8087 5.17214L37.7087 6.81314C37.9921 7.33039 38.3959 7.77186 38.8858 8.10028C39.3758 8.4287 39.9375 8.63444 40.5237 8.70014L42.3887 8.90014C42.8964 8.95402 43.3704 9.18036 43.7314 9.54141C44.0925 9.90246 44.3188 10.3764 44.3727 10.8841L44.5727 12.7491C44.6377 13.3364 44.8433 13.8994 45.1719 14.3904C45.5005 14.8814 45.9426 15.2861 46.4607 15.5701L48.1017 16.4701C48.549 16.7176 48.899 17.1096 49.0945 17.5819C49.2899 18.0543 49.3193 18.579 49.1777 19.0701L48.6527 20.8701C48.4876 21.4371 48.4614 22.0355 48.5763 22.6147C48.6911 23.194 48.9437 23.7371 49.3127 24.1981L50.4917 25.6601C50.8128 26.0572 50.988 26.5524 50.988 27.0631C50.988 27.5738 50.8128 28.0691 50.4917 28.4661L49.3137 29.9301Z" fill="black" stroke="black" stroke-width="2" mask="url(#path-4-inside-2)"/>
</svg>
